<svg xmlns="http://www.w3.org/2000/svg" xmlns:xlink="http://www.w3.org/1999/xlink" viewBox="0 0 810 810"><defs><style>.a{fill:none;}.b{clip-path:url(#a);}.c{fill:#7b7b7c;}.d{clip-path:url(#b);}.e{fill:#babbbc;}.f{clip-path:url(#c);}.g{fill:#7e7e7e;}.h{clip-path:url(#d);}.i{clip-path:url(#e);}.j{clip-path:url(#f);}.k{fill:#7b7777;}.l{clip-path:url(#g);}.m{fill:#fff;}.n{clip-path:url(#h);}.o{fill:#b1b1b2;}</style><clipPath id="a"><rect class="a" x="36.61" y="36.61" width="736.5" height="736.5"/></clipPath><clipPath id="b"><rect class="a" x="197.71" y="194.02" width="422.25" height="422.25"/></clipPath><clipPath id="c"><rect class="a" x="566" y="300" width="53.96" height="164"/></clipPath><clipPath id="d"><rect class="a" x="197.71" y="351" width="51.29" height="160"/></clipPath><clipPath id="e"><rect class="a" x="300" y="565" width="159" height="51.27"/></clipPath><clipPath id="f"><rect class="a" x="354" y="194.02" width="164" height="52.98"/></clipPath><clipPath id="g"><rect class="a" x="298.15" y="467.52" width="93.35" height="93.87"/></clipPath><clipPath id="h"><rect class="a" x="419.62" y="468.7" width="88.85" height="90.68"/></clipPath></defs><title>authenticity2 bigger medal</title><g class="b"><path class="c" d="M404.86,773.11c-203.05,0-368.25-165.2-368.25-368.25S201.8,36.61,404.86,36.61,773.11,201.8,773.11,404.86,607.91,773.11,404.86,773.11Zm0-730C205.4,43.13,43.13,205.4,43.13,404.86S205.4,766.57,404.86,766.57,766.57,604.31,766.57,404.86,604.31,43.13,404.86,43.13Z"/></g><g class="d"><path class="e" d="M619.88,405.23q0,5.18-.25,10.36t-.76,10.33q-.51,5.16-1.27,10.28t-1.77,10.21q-1,5.08-2.27,10.11t-2.76,10q-1.51,5-3.25,9.84T603.81,486q-2,4.79-4.2,9.47T595,504.71q-2.44,4.57-5.11,9t-5.54,8.75q-2.88,4.31-6,8.47T572,539.11q-3.29,4-6.77,7.84t-7.14,7.5q-3.67,3.66-7.5,7.14t-7.84,6.77q-4,3.28-8.17,6.37t-8.47,6q-4.31,2.88-8.75,5.54t-9,5.11q-4.57,2.44-9.25,4.66t-9.47,4.2q-4.79,2-9.66,3.73t-9.84,3.25q-5,1.51-10,2.76T450,612.21q-5.08,1-10.2,1.77t-10.28,1.27q-5.16.51-10.33.76t-10.36.25q-5.18,0-10.36-.25t-10.33-.76q-5.15-.51-10.28-1.27t-10.21-1.77q-5.08-1-10.11-2.27t-10-2.76q-5-1.51-9.84-3.25t-9.66-3.73q-4.79-2-9.47-4.2t-9.25-4.66q-4.57-2.44-9-5.11t-8.75-5.54q-4.31-2.88-8.47-6t-8.17-6.37q-4-3.29-7.84-6.77t-7.5-7.14q-3.67-3.66-7.14-7.5t-6.77-7.84q-3.29-4-6.37-8.16t-6-8.47q-2.88-4.31-5.54-8.75t-5.11-9q-2.44-4.57-4.66-9.25t-4.2-9.47q-2-4.79-3.73-9.66t-3.25-9.84q-1.51-5-2.77-10t-2.27-10.11q-1-5.08-1.77-10.21t-1.27-10.28q-.5-5.16-.76-10.33t-.25-10.36q0-5.19.25-10.36t.76-10.33q.51-5.16,1.27-10.28t1.77-10.21q1-5.08,2.27-10.11t2.77-10q1.5-5,3.25-9.84t3.73-9.66q2-4.79,4.2-9.47t4.66-9.25q2.44-4.57,5.11-9t5.54-8.75q2.88-4.31,6-8.47t6.37-8.16q3.29-4,6.77-7.84t7.14-7.5q3.66-3.66,7.5-7.14t7.84-6.77q4-3.28,8.17-6.37t8.47-6q4.31-2.88,8.75-5.54t9-5.11q4.56-2.44,9.25-4.66t9.47-4.2q4.78-2,9.66-3.73t9.84-3.25q5-1.51,10-2.76t10.11-2.27q5.08-1,10.21-1.77t10.28-1.27q5.16-.51,10.33-.76t10.36-.25q5.18,0,10.36.25t10.33.76q5.16.51,10.28,1.27t10.2,1.77q5.09,1,10.11,2.27t10,2.76q5,1.51,9.84,3.25t9.66,3.73q4.79,2,9.47,4.2t9.25,4.66q4.56,2.44,9,5.11t8.75,5.54q4.31,2.88,8.47,6t8.17,6.37q4,3.29,7.84,6.77t7.5,7.14q3.66,3.66,7.14,7.5t6.77,7.84q3.29,4,6.38,8.16t6,8.47q2.88,4.31,5.54,8.75t5.11,9q2.44,4.57,4.66,9.25t4.2,9.47q2,4.79,3.73,9.66t3.25,9.84q1.5,5,2.76,10t2.27,10.11q1,5.08,1.77,10.21t1.27,10.28q.5,5.16.76,10.33T619.88,405.23Z"/></g><g class="f"><path class="g" d="M590.94,300.27c3.57,19.5,2.42,41.71-3.65,65.71a247.65,247.65,0,0,1-20.53,53.12L610.91,464q2.92-10.19,4.8-20.62a211.7,211.7,0,0,0,1.82-63.27q-1.28-10.52-3.61-20.86a211.62,211.62,0,0,0-23-59Z"/></g><path class="g" d="M425.1,561.13,470.26,607a209.12,209.12,0,0,0,82.2-47.63l-52.18-53a336.29,336.29,0,0,1-75.18,54.75Z"/><path class="g" d="M408.36,412.93l-65.71,64.5,74.73,76A325.53,325.53,0,0,0,492.89,499Z"/><path class="g" d="M554.9,254.29c-33.59-29.81-91.11-27.79-149.67.58l73.23,74.44,76.36-75.12Z"/><path class="g" d="M562.16,261.65,485.8,336.78l73.31,74.52C588.44,353.23,591.49,295.75,562.16,261.65Z"/><path class="g" d="M507.64,499.14l52.18,53a208.93,208.93,0,0,0,47.45-77.1l-45.79-46.55A337.33,337.33,0,0,1,507.64,499.14Z"/><path class="g" d="M323.82,312.25l84.67,86.08,62.71-61.66-75.62-76.89a326.54,326.54,0,0,0-71.76,52.57Z"/><path class="g" d="M500.39,491.78a326.41,326.41,0,0,0,53.65-71L478.46,344,415.75,405.7Z"/><path class="g" d="M316.57,304.89A337.75,337.75,0,0,1,388,252.11l-45.79-46.53a209.16,209.16,0,0,0-77.88,46.24Z"/><path class="g" d="M257,259.08a209.06,209.06,0,0,0-49,81.48l45.16,45.92a337.08,337.08,0,0,1,56-74.26Z"/><path class="g" d="M316.46,319.48a325.45,325.45,0,0,0-55.64,74.63l74.73,76,65.71-64.5Z"/><path class="g" d="M254.7,549.61l73.6-72.29L256,403.73C228.28,460.55,226.12,516.25,254.7,549.61Z"/><g class="h"><path class="g" d="M225.91,511c-3.57-19.48-2.42-41.69,3.66-65.71A243.6,243.6,0,0,1,248.2,396l-43.48-44.16q-2.62,10-4.26,20.14t-2.28,20.45q-.64,10.28-.28,20.58t1.72,20.51q1.36,10.21,3.7,20.25T209,473.53q3.3,9.76,7.55,19.15T225.91,511Z"/></g><path class="g" d="M407.73,558.21l-72.34-73.6-73.6,72.29C294.8,586.15,350.53,584.83,407.73,558.21Z"/><g class="i"><path class="g" d="M300,586.36q8.85,5.28,18.17,9.68t19,7.87q9.7,3.47,19.69,6t20.18,4q10.19,1.53,20.48,2.06t20.58.06q10.29-.47,20.49-1.94t20.21-3.93l-43.48-44.29a244.5,244.5,0,0,1-49.63,17.79C341.78,589.54,319.49,590.27,300,586.36Z"/></g><g class="j"><path class="g" d="M517.89,224.64c-19.43-4-41.64-3.39-65.71,2.13a248,248,0,0,0-53.59,19.29l-43.93-45.18q10.26-2.68,20.73-4.33a211.8,211.8,0,0,1,42.23-2.36q10.59.47,21.08,2t20.77,4.09q10.28,2.57,20.26,6.15t19.54,8.14Q508.82,219.15,517.89,224.64Z"/></g><path class="k" d="M107.85,311.47c-2.91.11-4.18.82-5,3s.22,4.12,1.94,5.59l29.89,27.48c2.24,2,5.34,1.54,6.41-1.41a3.78,3.78,0,0,0-1-4.25l-5.43-4.75,7.19-19.91,7.21-.19a3.64,3.64,0,0,0,3.5-2.61,3.85,3.85,0,0,0-4.12-5.14Zm5.29,6.64L134,317.5l-5.21,14.42Z"/><path class="k" d="M131.82,253.83a3.92,3.92,0,0,0,1.44,5.39l20.18,11.18c6.2,3.43,8.59,11,5.41,16.76-3.36,6.07-11,8-17.21,4.57l-20.05-11.1a3.94,3.94,0,1,0-3.82,6.9l19.73,10.93c9.9,5.48,22.52,2.29,28-7.61,5.16-9.32,1.39-22.1-8.51-27.58l-19.86-11A3.87,3.87,0,0,0,131.82,253.83Z"/><path class="k" d="M141.07,239.89a3.69,3.69,0,1,0,5.85,4.49l6.67-8.69,28.09,21.55a3.93,3.93,0,0,0,5.53-.73,4,4,0,0,0-.68-5.59l-28.09-21.55,6.62-8.63a3.89,3.89,0,0,0-.34-5.32,3.93,3.93,0,0,0-5.52.83Z"/><path class="k" d="M193.57,181.08a3.93,3.93,0,0,0-.21,5.57l11.07,11.53-16.54,15.88-11.07-11.53a3.93,3.93,0,0,0-5.58,0,3.86,3.86,0,0,0-.16,5.52l27.05,28.17a3.93,3.93,0,0,0,5.57.11,4,4,0,0,0,.17-5.63l-10.92-11.37,16.53-15.87,10.92,11.37a3.94,3.94,0,0,0,5.69-5.46L199,181.19A3.8,3.8,0,0,0,193.57,181.08Z"/><path class="k" d="M259.57,190.35a3.86,3.86,0,0,0,1-5.43,3.91,3.91,0,0,0-5.2-.55l-17.65,12.33-7.19-10.29,13.82-9.66a3.77,3.77,0,0,0,.94-5.29,3.63,3.63,0,0,0-5.16-.76l-13.82,9.66-7-10L237,158c1.79-1.25,2.27-3.64,1.31-5a3.93,3.93,0,0,0-5.49-1l-20.95,14.63a3.88,3.88,0,0,0-1,5.49L233.14,204a3.88,3.88,0,0,0,5.31,1.1Z"/><path class="k" d="M279.2,127.61a3.93,3.93,0,0,0-1.92,5.23l12.5,25.74L253.5,141.71a4.16,4.16,0,0,0-4.71,1,3.91,3.91,0,0,0-.54,4.4L265.18,182a3.92,3.92,0,0,0,5.27,1.82,4,4,0,0,0,1.89-5.3l-12.63-26,36.66,17a3.44,3.44,0,0,0,4.41-.77,4,4,0,0,0,.64-4.37l-17-35A3.82,3.82,0,0,0,279.2,127.61Z"/><path class="k" d="M296.24,121a3.69,3.69,0,1,0,2.16,7l10.46-3.21,10.41,33.84a3.92,3.92,0,0,0,4.93,2.61,4,4,0,0,0,2.68-4.95L316.47,122.5l10.4-3.2a3.88,3.88,0,0,0,2.81-4.53,3.93,3.93,0,0,0-5-2.52Z"/><path class="k" d="M350.3,154.64a4,4,0,0,0,3.15-4.66l-7.73-38.13a3.93,3.93,0,0,0-4.7-3,3.86,3.86,0,0,0-3.09,4.58l7.73,38.13A3.92,3.92,0,0,0,350.3,154.64Z"/><path class="k" d="M384.2,150.59A23.15,23.15,0,0,0,400,142.86a4.13,4.13,0,0,0,.33-5.52c-1.38-1.57-4-1.2-5.62.26A16.87,16.87,0,0,1,383.55,143c-8.87.76-16.13-6.16-16.89-15-.83-9.67,5.72-17.05,14.23-17.78a16.66,16.66,0,0,1,11.75,3.68c1.85,1.09,4.49,1.08,5.57-.77a4,4,0,0,0-1.27-5.39,23.32,23.32,0,0,0-17.06-5c-13.31,1.14-22.21,13.55-21.14,26C359.85,141.76,371.4,151.68,384.2,150.59Z"/><path class="k" d="M429.22,150a4,4,0,0,0,4.49-3.39l1.11-8.39,8.83,1.16c9.63,1.27,18.32-5,19.57-14.43a17.41,17.41,0,0,0-15.09-19.58l-12.81-1.68a3.92,3.92,0,0,0-4.42,3.39l-5.06,38.5A3.92,3.92,0,0,0,429.22,150Zm9.12-38.56,9,1.18c5.64.74,8.75,5.71,8,11.07s-5,9.14-10.6,8.4l-9-1.18Z"/><path class="k" d="M493.95,146.39a14.69,14.69,0,0,0,11.45-10.95c2.51-8.85-3-18-12.36-20.65l-12.43-3.52a3.93,3.93,0,0,0-4.87,2.72l-10.58,37.37a3.93,3.93,0,0,0,2.72,4.87,4,4,0,0,0,4.94-2.7l2.79-9.83,7.45,2.11c.84.24,1.78.43,2.64.6l5.4,15c.9,2.45,3.48,3,5.53,2.17,1.86-.69,2.67-2.73,1.62-5.46Zm-11.47-27,8.71,2.47a9.07,9.07,0,0,1,6.55,11.41c-1.37,4.85-6.11,7.38-11.52,5.84l-8.64-2.45Z"/><path class="k" d="M522.31,176.32c11.87,5.64,26.5.72,32.17-11.21a24.16,24.16,0,0,0-43.64-20.76A24.08,24.08,0,0,0,522.31,176.32Zm3.23-6.79c-8.3-4-11.53-13.32-7.52-21.76s13.38-12,21.69-8,11.73,13.42,7.65,22A16.07,16.07,0,0,1,525.54,169.53Z"/><path class="k" d="M579.66,153.8a3.86,3.86,0,0,0-5.46.84l-22.69,31.61a3.93,3.93,0,0,0,.9,5.5l10.44,7.49c10.44,7.49,25.3,5.31,32.79-5.13a23.74,23.74,0,0,0-5.55-32.82Zm-19.72,34.36,18.73-26.09L586,167.3c7.53,5.4,8.38,15,3.27,22.11-5.23,7.3-14.46,9.39-22,4Z"/><path class="k" d="M644.19,208.93a3.93,3.93,0,0,0-5.57-.12L622.23,225c-5,5-13,5.16-17.6.49-4.88-4.93-4.64-12.77.44-17.8l16.28-16.14a3.94,3.94,0,1,0-5.55-5.6l-16,15.88c-8,8-8.5,21-.54,29,7.5,7.57,20.82,7.52,28.86-.44l16.12-16A3.86,3.86,0,0,0,644.19,208.93Z"/><path class="k" d="M629.81,267.67a23.16,23.16,0,0,0,14.63,9.68,4.13,4.13,0,0,0,4.93-2.51c.65-2-1-4-3.07-4.71A16.86,16.86,0,0,1,636,263.29c-5.14-7.27-2.84-17,4.43-22.18,7.93-5.61,17.6-3.69,22.53,3.29a16.64,16.64,0,0,1,2.77,12c0,2.15,1.34,4.42,3.48,4.42a4,4,0,0,0,4-3.82,23.31,23.31,0,0,0-4.33-17.23c-7.71-10.91-22.92-12.3-33.11-5.1C625.11,242.2,622.39,257.19,629.81,267.67Z"/><path class="k" d="M684.71,265.53a3.69,3.69,0,1,0-6.58,3.32l4.93,9.78-31.61,15.95a3.93,3.93,0,0,0-1.74,5.3,4,4,0,0,0,5.33,1.81l31.61-15.95,4.9,9.71a3.88,3.88,0,0,0,4.94,2,3.93,3.93,0,0,0,1.64-5.33Z"/><path class="k" d="M662.9,332.46c3.15,9,11.09,13.61,18.87,10.89,7.45-2.6,8.38-10.11,8.55-19.37.09-3.51.26-7.9,4.12-9.24,3.38-1.18,5.6,1.21,6.59,4,1.15,3.31,1.24,6.45-.22,9.12a3.79,3.79,0,0,0,1.55,5.11,3.38,3.38,0,0,0,4.1-.66c3.36-4.11,3.71-10.18,1.84-15.56-2.62-7.51-8.89-12-16.61-9.28s-8.52,9.7-8.76,17.44c-.17,5.93-.54,9.77-3.77,10.9-4.48,1.56-7.45-1-8.89-5.09-1.54-4.41-.9-8.11.87-10.36a3.89,3.89,0,0,0,.59-3.84,3.62,3.62,0,0,0-6.41-.86C662.41,319.1,660.37,325.22,662.9,332.46Z"/><path class="k" d="M177.21,614.45c8.86,9.7,24.27,10.65,34,1.74a24.16,24.16,0,0,0-32.6-35.67A24.08,24.08,0,0,0,177.21,614.45Zm5.55-5.07c-6.2-6.79-5.66-16.69,1.24-23s16.91-6.06,23.11.73,5.8,16.85-1.2,23.25A16.07,16.07,0,0,1,182.75,609.38Z"/><path class="k" d="M234,642.42a14.68,14.68,0,0,0,14.73-5.82c5.66-7.25,4-17.81-3.67-23.79l-10.19-7.95a3.93,3.93,0,0,0-5.54.69l-23.88,30.63a3.92,3.92,0,0,0,.68,5.53,4,4,0,0,0,5.59-.64L218,633l6.1,4.76c.69.54,1.48,1.07,2.22,1.55l-.63,15.89c-.09,2.61,2.11,4.05,4.3,4.09,2,.07,3.5-1.52,3.56-4.45Zm-.46-29.33,7.14,5.57a9.08,9.08,0,0,1,1.77,13c-3.1,4-8.44,4.53-12.87,1.07l-7.08-5.52Z"/><path class="k" d="M257.81,677.47c5.55,3.07,10.72,3.85,17.4,2.63a4.4,4.4,0,0,0,3.54-2.46l5.3-9.58a4,4,0,0,0-1.7-5.36L273,657.53a3.55,3.55,0,1,0-3.43,6.19l6.32,3.5L272.74,673c-3.63,1-7.52,0-11.09-2-7.73-4.28-10-14.11-5.68-21.84,4.74-8.56,14.29-11,21.7-6.93a17.36,17.36,0,0,1,7.61,9.47c.87,1.9,3.06,3.36,5,2.53a4,4,0,0,0,1.89-5.21c-2.12-6.27-5.45-10.36-10.94-13.4-11.56-6.4-26-1.61-32.23,9.69C242.64,656.8,246.83,671.39,257.81,677.47Z"/><path class="k" d="M319.42,657c-.11-2.91-.82-4.18-3-5s-4.12.22-5.59,1.94L283.34,683.9c-2,2.24-1.54,5.34,1.41,6.41a3.78,3.78,0,0,0,4.25-1l4.75-5.43,19.91,7.19.19,7.21a3.64,3.64,0,0,0,2.61,3.51,3.86,3.86,0,0,0,5.14-4.12Zm-6.64,5.29.61,20.87L299,678Z"/><path class="k" d="M373.73,666.22a3.93,3.93,0,0,0-4.65,3.08l-5.19,28.14-19.21-35.09a4.18,4.18,0,0,0-4.38-2,3.9,3.9,0,0,0-3,3.22l-7,38.12a3.92,3.92,0,0,0,3.16,4.59,4,4,0,0,0,4.66-3.15l5.25-28.43,19.44,35.43a3.45,3.45,0,0,0,4,2,4,4,0,0,0,3.1-3.14l7.06-38.26A3.82,3.82,0,0,0,373.73,666.22Z"/><path class="k" d="M385.94,713.74a4,4,0,0,0,4.25-3.68l2.44-38.83a3.93,3.93,0,0,0-3.77-4.11,3.87,3.87,0,0,0-4.18,3.62l-2.44,38.83A3.93,3.93,0,0,0,385.94,713.74Z"/><path class="k" d="M424,714.44a23.15,23.15,0,0,0,16-7.19,4.13,4.13,0,0,0,.52-5.51c-1.32-1.61-3.94-1.33-5.62.07a16.86,16.86,0,0,1-11.29,5c-8.89.46-15.92-6.7-16.38-15.59-.5-9.7,6.29-16.85,14.82-17.29A16.65,16.65,0,0,1,433.69,678c1.81,1.15,4.45,1.23,5.6-.58A4,4,0,0,0,438.2,672a23.33,23.33,0,0,0-16.88-5.56c-13.34.7-22.65,12.8-22,25.27C400,704.8,411.2,715.11,424,714.44Z"/><path class="k" d="M449,682.28c2.23-.36,3.11-2.34,2.76-4.5l-1.6-10.09c-.34-2.16-1.77-3.71-4-3.36s-3.11,2.27-2.77,4.43l1.6,10.09C445.33,681,446.69,682.65,449,682.28Z"/><path class="k" d="M479.35,706c9.28-2.32,14.55-9.81,12.55-17.81-1.91-7.65-9.32-9.26-18.52-10.26-3.48-.41-7.84-1-8.83-4.94-.87-3.47,1.71-5.47,4.62-6.2,3.4-.85,6.53-.66,9.07,1a3.79,3.79,0,0,0,5.22-1.08,3.38,3.38,0,0,0-.29-4.14c-3.79-3.71-9.81-4.62-15.33-3.23-7.72,1.93-12.73,7.78-10.74,15.71s8.89,9.36,16.57,10.3c5.9.71,9.69,1.41,10.52,4.74,1.15,4.6-1.62,7.33-5.87,8.39-4.53,1.14-8.16.16-10.23-1.8a3.88,3.88,0,0,0-3.77-.94,3.62,3.62,0,0,0-1.43,6.3C466,705.26,471.91,707.84,479.35,706Z"/><path class="k" d="M538.76,656.56a10.78,10.78,0,0,0,.89-10.46A12.87,12.87,0,0,0,522.38,640l-15.07,7.23a3.86,3.86,0,0,0-1.88,5.19l16.86,35.15a3.86,3.86,0,0,0,5.23,1.79L543,681.9a14,14,0,0,0,6.84-18.66A11.94,11.94,0,0,0,538.76,656.56Zm-13.43-9.27A5.37,5.37,0,1,1,530,657l-11.06,5.3-4.64-9.68Zm2.29,33.14-5.3-11.06L534,663.8a6.38,6.38,0,0,1,8.64,2.66,6.46,6.46,0,0,1-3.27,8.37Z"/><path class="k" d="M589,654a3.86,3.86,0,0,0,1.12-5.41,3.91,3.91,0,0,0-5.18-.65l-17.88,12-7-10.42,14-9.4a3.77,3.77,0,0,0,1-5.27A3.63,3.63,0,0,0,570,634l-14,9.4-6.79-10.12,17.88-12c1.82-1.22,2.34-3.59,1.4-5a3.92,3.92,0,0,0-5.47-1.08l-21.21,14.24a3.88,3.88,0,0,0-1.08,5.47l21.65,32.24a3.88,3.88,0,0,0,5.29,1.2Z"/><path class="k" d="M609.83,637.53c7.14-6.36,8.35-15.44,2.87-21.6-5.24-5.89-12.55-3.89-21.17-.52-3.28,1.25-7.4,2.77-10.12-.28-2.37-2.68-1-5.64,1.22-7.63,2.62-2.33,5.48-3.61,8.52-3.28a3.79,3.79,0,0,0,4.13-3.38,3.38,3.38,0,0,0-2.17-3.54c-5.08-1.54-10.83.45-15.09,4.24-5.95,5.29-7.68,12.79-2.25,18.89s12.22,4.18,19.46,1.45c5.55-2.11,9.24-3.23,11.52-.67,3.15,3.55,2,7.25-1.32,10.16-3.49,3.11-7.16,3.93-9.91,3.14a3.89,3.89,0,0,0-3.77.92,3.62,3.62,0,0,0,1.65,6.25C597.67,643.07,604.1,642.62,609.83,637.53Z"/><path class="k" d="M593.4,588.33a3.7,3.7,0,1,0,5.58,4.82l7.16-8.29L632.94,608a3.92,3.92,0,0,0,5.56-.41,4,4,0,0,0-.36-5.61l-26.8-23.14,7.11-8.23a3.88,3.88,0,0,0,0-5.33,3.93,3.93,0,0,0-5.55.51Z"/><g class="l"><path class="m" d="M374.16,487.07c-14.63,2.37-29.46-3.57-37.81-15.15l-2.61-3.62-34.86,68.75,33.6-1.25,20,25.51,38.93-76.79-.43-.19-16.83,2.73"/></g><g class="n"><path class="m" d="M459.78,471.16l-12.59,10.9a39.31,39.31,0,0,1-25.71,9.4h-1l34.4,67.86,20-25.51,33.59,1.25-33.62-66.33-15.06,2.44"/></g><path class="o" d="M404.05,298.85c-44.26,0-80.14,33.88-80.14,75.67s35.88,75.67,80.14,75.67,80.14-33.88,80.14-75.67S448.31,298.85,404.05,298.85Z"/><path class="m" d="M426.77,348.19l-33,31.22L380.57,367a10.37,10.37,0,0,0-14.09,0,9.06,9.06,0,0,0,0,13.3l20.2,19.07a10.36,10.36,0,0,0,14.08,0l40.09-37.87a9.06,9.06,0,0,0,0-13.3,10.37,10.37,0,0,0-14.09,0"/><path class="m" d="M403.67,444.7c-41.46,0-75.07-31.75-75.07-70.93s33.61-70.91,75.07-70.91,75.07,31.74,75.07,70.91S445.13,444.7,403.67,444.7Zm114.88-53.6-6.76-19.73,5.61-20a19.55,19.55,0,0,0-7.13-20.78l-17-13.15-6.76-19.73a21.12,21.12,0,0,0-17.88-13.84l-21.8-2.39-17-13.14a22.41,22.41,0,0,0-23-2.52l-19.7,9.13-21.81-2.38a21.8,21.8,0,0,0-20.76,9.61l-11.36,17.76L313.56,309a20.07,20.07,0,0,0-12,18.7l.59,20.73-11.35,17.74a19.28,19.28,0,0,0,.63,21.85l12.37,17.13.6,20.73a20.23,20.23,0,0,0,13,18l20.2,8.11L350,469.14a21.93,21.93,0,0,0,21.29,8.53L393,474.16l20.22,8.1a22.36,22.36,0,0,0,22.78-3.7l16.19-14L473.8,461a21,21,0,0,0,17.06-14.75l5.6-20,16.19-14a19.48,19.48,0,0,0,5.9-21.12"/></svg>