<svg xmlns="http://www.w3.org/2000/svg" xmlns:xlink="http://www.w3.org/1999/xlink" viewBox="0 0 810 810"><defs><style>.a{fill:none;}.b{clip-path:url(#a);}.c{fill:#babbbc;}.d{fill:#7e7e7e;}.e{clip-path:url(#b);}.f{clip-path:url(#c);}.g{clip-path:url(#d);}.h{fill:#fff;}.i{fill:#b1b1b2;}.j{fill:#7b7777;}.k{clip-path:url(#e);}.l{fill:#7b7b7c;}</style><clipPath id="a"><rect class="a" x="198.5" y="198.5" width="413.25" height="413.25"/></clipPath><clipPath id="b"><rect class="a" x="198.5" y="352" width="49.5" height="157"/></clipPath><clipPath id="c"><rect class="a" x="298" y="562" width="157" height="49.75"/></clipPath><clipPath id="d"><rect class="a" x="352" y="198.5" width="160" height="51.5"/></clipPath><clipPath id="e"><rect class="a" x="36.61" y="36.61" width="736.5" height="736.5"/></clipPath></defs><title>delivery2</title><g class="b"><path class="c" d="M611.67,405.2q0,5.07-.25,10.14t-.75,10.11q-.5,5-1.24,10.06t-1.73,10q-1,5-2.22,9.89t-2.7,9.77q-1.47,4.85-3.18,9.63t-3.65,9.46q-1.94,4.69-4.11,9.27t-4.56,9.05q-2.39,4.47-5,8.82t-5.42,8.57q-2.82,4.21-5.84,8.29t-6.24,8q-3.22,3.92-6.62,7.68t-7,7.34q-3.59,3.59-7.34,7t-7.68,6.62q-3.92,3.22-8,6.24t-8.29,5.84q-4.21,2.82-8.57,5.43t-8.82,5q-4.47,2.39-9.05,4.56T484.16,596q-4.68,1.94-9.46,3.65t-9.62,3.18q-4.85,1.47-9.77,2.7t-9.89,2.22q-5,1-10,1.73t-10.06,1.24q-5,.5-10.11.75t-10.13.25q-5.07,0-10.14-.25t-10.11-.75q-5-.5-10.06-1.24t-10-1.73q-5-1-9.89-2.22t-9.77-2.7q-4.85-1.47-9.62-3.18T326.08,596q-4.69-1.95-9.27-4.11t-9.05-4.56q-4.47-2.39-8.82-5t-8.57-5.43q-4.21-2.81-8.29-5.84t-8-6.24q-3.92-3.22-7.68-6.62t-7.34-7q-3.58-3.58-7-7.34t-6.62-7.68q-3.22-3.92-6.24-8t-5.84-8.29q-2.82-4.22-5.43-8.57t-5-8.82q-2.39-4.47-4.56-9.05t-4.11-9.27q-1.94-4.68-3.65-9.46t-3.18-9.62q-1.47-4.86-2.7-9.77t-2.22-9.89q-1-5-1.73-10t-1.24-10.06q-.5-5-.75-10.11t-.25-10.14q0-5.07.25-10.13t.75-10.11q.5-5.05,1.24-10.06t1.73-10q1-5,2.22-9.89t2.7-9.77q1.47-4.85,3.18-9.62t3.65-9.46q1.94-4.68,4.11-9.27t4.56-9.05q2.39-4.48,5-8.82t5.43-8.57q2.81-4.22,5.84-8.29t6.24-8q3.22-3.92,6.62-7.68t7-7.34q3.59-3.59,7.34-7t7.68-6.62q3.92-3.22,8-6.23t8.29-5.84q4.22-2.81,8.57-5.42t8.82-5q4.47-2.39,9.05-4.56t9.27-4.11q4.68-1.94,9.46-3.65t9.63-3.18q4.86-1.47,9.77-2.7t9.89-2.22q5-1,10-1.73t10.06-1.24q5-.5,10.11-.75t10.14-.25q5.07,0,10.13.25t10.11.75q5.05.5,10.06,1.24t10,1.73q5,1,9.89,2.22t9.77,2.7q4.85,1.47,9.63,3.18t9.46,3.65q4.69,1.94,9.27,4.11t9.05,4.56q4.47,2.39,8.82,5t8.57,5.42q4.22,2.82,8.29,5.84t8,6.23q3.92,3.22,7.68,6.63t7.34,7q3.59,3.59,7,7.34t6.62,7.68q3.22,3.92,6.24,8t5.84,8.29q2.81,4.21,5.42,8.57t5,8.82q2.39,4.47,4.56,9.05t4.11,9.27q1.94,4.69,3.65,9.46t3.18,9.63q1.47,4.85,2.7,9.77t2.22,9.89q1,5,1.73,10T610.67,385q.5,5,.75,10.11T611.67,405.2Z"/></g><path class="d" d="M583.34,302.48c3.5,19.09,2.37,40.82-3.57,64.31a242.57,242.57,0,0,1-20.09,52l43.22,43.94A206.82,206.82,0,0,0,610.26,422q.81-10.34.6-20.71a207.36,207.36,0,0,0-5-41.08q-2.28-10.12-5.55-20a207.56,207.56,0,0,0-16.94-37.76Z"/><path class="d" d="M421,557.77l44.2,44.94a204.69,204.69,0,0,0,80.45-46.61l-51.07-51.91A329.21,329.21,0,0,1,421,557.77Z"/><path class="d" d="M404.66,412.73l-64.31,63.13,73.14,74.37A318.57,318.57,0,0,0,487.39,497Z"/><path class="d" d="M548.07,257.48c-32.87-29.18-89.16-27.2-146.48.56l71.67,72.86L548,257.38Z"/><path class="d" d="M555.18,264.68l-74.73,73.52,71.75,72.93C580.9,354.31,583.88,298.05,555.18,264.68Z"/><path class="d" d="M501.82,497.11,552.89,549a204.55,204.55,0,0,0,46.43-75.45L554.5,428A330.14,330.14,0,0,1,501.82,497.11Z"/><path class="d" d="M321.93,314.21l82.86,84.25,61.38-60.35-74-75.25a319.64,319.64,0,0,0-70.23,51.45Z"/><path class="d" d="M494.72,489.91a319.55,319.55,0,0,0,52.51-69.46l-74-75.14-61.38,60.35Z"/><path class="d" d="M314.82,307a330.73,330.73,0,0,1,69.95-51.66L340,209.81a204.83,204.83,0,0,0-76.22,45.25Z"/><path class="d" d="M256.53,262.16a204.58,204.58,0,0,0-47.93,79.75l44.2,44.94a330.1,330.1,0,0,1,54.79-72.68Z"/><path class="d" d="M314.72,321.28a318.4,318.4,0,0,0-54.46,73l73.14,74.34,64.31-63.13Z"/><path class="d" d="M254.27,546.5l72-70.74-70.77-72C228.41,459.35,226.3,513.86,254.27,546.5Z"/><g class="e"><path class="d" d="M226.1,508.71c-3.5-19.06-2.37-40.8,3.57-64.31a238.69,238.69,0,0,1,18.24-48.26l-42.55-43.22q-2.56,9.76-4.16,19.71t-2.23,20q-.63,10.07-.28,20.14t1.68,20.07q1.33,10,3.63,19.81T209.54,472q3.23,9.55,7.39,18.74T226.1,508.71Z"/></g><path class="d" d="M404,554.92l-70.8-72-72,70.75C293.52,582.26,348.06,581,404,554.92Z"/><g class="f"><path class="d" d="M298.64,582.47q8.65,5.17,17.78,9.47t18.61,7.7q9.49,3.39,19.27,5.85t19.75,4q10,1.49,20,2t20.14.05q10.07-.46,20.05-1.9t19.77-3.84l-42.55-43.35A239.28,239.28,0,0,1,363,579.84C339.5,585.58,317.68,586.3,298.64,582.47Z"/></g><g class="g"><path class="d" d="M511.85,228.46c-19-3.94-40.75-3.32-64.31,2.08a242.92,242.92,0,0,0-52.45,18.88l-43-44.22a207,207,0,0,1,102.56-.57q10.07,2.51,19.83,6a206.5,206.5,0,0,1,37.36,17.81Z"/></g><path class="h" d="M379.32,551.29a150.71,150.71,0,0,1-13.68,9.05c14.48,3.37,53.33,3,91.48-6,38.23-8.08,75.79-24.7,90-33.88a211.19,211.19,0,0,1-48.88,29.71c-33.11,15-85.56,30.2-144.06,25a83.33,83.33,0,0,0,1.88,11.27c-23.59-9.54-39.43-22.79-48.54-36.92a177.63,177.63,0,0,0,71.77,1.75Z"/><path class="h" d="M246.88,414.38a105.87,105.87,0,0,1-12.48-7.48c-3.57,12-1,41.39,12.66,67.48,12.53,26.45,36,49.62,48.88,57.57.52-.52-19.6-6.79-41.16-27.66C233.61,483.94,211,449,214.65,403q-7.25,2.21-14.48,5a130.58,130.58,0,0,1,45.22-48.6,81.42,81.42,0,0,0,1.49,54.95Z"/><path class="h" d="M467.38,327c0,1.65.31,75.5.39,95.93-31.87,16.77-54.85,32.36-54.25,43.73a7.11,7.11,0,0,0,.69,2.83.66.66,0,0,0,.21.57c0,.18.26.31.36.49a7.18,7.18,0,0,0,2,2.11c9.31,6.66,34.83-4.32,66.14-22.15,17.16,11.06,79.23,51.12,80.62,52,3.76,2.34,9-1,6.1-5.35-1-1.49-2.86-4.14-5.3-7.59-8.82-12.43-25.18-35-36-49.78l-2.8-2.86-.46-.62-6.92-6.95c16.11-9.93,29.25-18.29,39.18-25.29l2-1.08,4.17,3.09,12.86,9.5a2,2,0,0,0,1.88,0l10.29-5.15.93-.49c.59-.31.8-.9.46-1.31l-14.71-18.6c3.45-3.88,4.61-7,3.32-9.34s-4.53-3.06-9.65-2.24l-8-22.64a.86.86,0,0,0-1.34-.34l-.9.54-9.85,5.79a1.88,1.88,0,0,0-.68.68,2,2,0,0,0-.27.92l1.11,15.92.36,5.14-2,1.08c-11.24,4.58-25.39,11.16-42.39,19.4l-2.14-9.6-.28-.72-.9-3.91c-6.66-17-16.9-42.94-22.61-57.06-1.57-3.89-2.83-6.89-3.52-8.54C473.06,319.94,467.4,322.62,467.38,327Z"/><path class="h" d="M270.42,270.27c-.81,0-1.63,0-2.44.12s-1.62.2-2.41.36-1.59.36-2.37.59-1.54.51-2.3.82a25.26,25.26,0,0,0-4.3,2.3c-.68.45-1.33.94-2,1.45a24,24,0,0,0-1.81,1.64c-.57.57-1.12,1.18-1.64,1.81s-1,1.28-1.45,2a24.11,24.11,0,0,0-1.25,2.09,23.2,23.2,0,0,0-1,2.21q-.47,1.13-.82,2.3c-.24.78-.43,1.57-.59,2.37s-.28,1.6-.36,2.41-.12,1.62-.12,2.44c0,11.7,18,32.9,23.41,38.87a1.94,1.94,0,0,0,.66.49,2,2,0,0,0,1.61,0,1.94,1.94,0,0,0,.66-.49c5.33-6,23.41-27.17,23.41-38.87q0-1.22-.12-2.44c-.08-.81-.2-1.62-.36-2.41s-.36-1.59-.59-2.37-.51-1.54-.82-2.3a25.26,25.26,0,0,0-2.3-4.3q-.68-1-1.45-2a25.1,25.1,0,0,0-3.45-3.45q-.94-.77-2-1.45a25.26,25.26,0,0,0-4.3-2.3c-.75-.31-1.52-.59-2.3-.82s-1.57-.43-2.37-.59-1.6-.28-2.41-.36S271.24,270.27,270.42,270.27Zm0,36A12.36,12.36,0,0,1,268,306a12.25,12.25,0,0,1-4.43-1.84,12.33,12.33,0,0,1-4.53-5.52,12.25,12.25,0,0,1-.7-2.3,12.21,12.21,0,0,1,0-4.8,12.27,12.27,0,0,1,1.84-4.43,12.3,12.3,0,0,1,3.39-3.39,12.25,12.25,0,0,1,4.43-1.84,12.39,12.39,0,0,1,4.8,0,12.25,12.25,0,0,1,4.43,1.84,12.07,12.07,0,0,1,1.86,1.53,12.3,12.3,0,0,1,1.53,1.86,12.45,12.45,0,0,1,1.13,2.13,12.26,12.26,0,0,1,.7,2.3,12.24,12.24,0,0,1-1.86,9.21,12.24,12.24,0,0,1-1.53,1.86,12.2,12.2,0,0,1-4,2.65,12.2,12.2,0,0,1-2.3.7,12.35,12.35,0,0,1-2.39.23Z"/><path class="h" d="M303.63,352.23q-1.15,0-2.3.11c-.76.08-1.52.19-2.27.34a23,23,0,0,0-2.23.56q-1.1.33-2.17.77a23.47,23.47,0,0,0-4.05,2.17q-1,.64-1.85,1.37t-1.7,1.55q-.81.81-1.55,1.7c-.48.59-.94,1.21-1.37,1.85s-.82,1.3-1.18,2-.69,1.37-1,2.08-.55,1.43-.77,2.16-.41,1.48-.56,2.23-.26,1.51-.34,2.27a22.61,22.61,0,0,0-.11,2.3c0,11,17.05,31,22.07,36.66a1.84,1.84,0,0,0,.63.45,1.85,1.85,0,0,0,1.5,0,1.84,1.84,0,0,0,.63-.45c5.14-5.64,22.07-25.73,22.07-36.66a22.5,22.5,0,0,0-.11-2.3q-.11-1.15-.34-2.28c-.15-.75-.34-1.5-.56-2.23s-.48-1.46-.78-2.16a22.51,22.51,0,0,0-1-2.08c-.36-.68-.76-1.34-1.18-2s-.89-1.25-1.37-1.85-1-1.16-1.55-1.71-1.11-1.05-1.71-1.54a23.39,23.39,0,0,0-3.82-2.55,23,23,0,0,0-2.08-1q-1.07-.44-2.17-.77c-.73-.22-1.48-.41-2.23-.55a22.54,22.54,0,0,0-2.28-.34Q304.79,352.23,303.63,352.23Zm0,33.91a11.56,11.56,0,0,1-2.26-.22,11.67,11.67,0,0,1-4.18-1.73,11.77,11.77,0,0,1-1.76-1.45A11.14,11.14,0,0,1,294,381a11.53,11.53,0,0,1-1.73-4.18,11.62,11.62,0,0,1,0-4.53,11.61,11.61,0,0,1,6.94-8.46,11.6,11.6,0,0,1,8.88,0,11.69,11.69,0,0,1,3.76,2.52,11.77,11.77,0,0,1,1.45,1.76,11.67,11.67,0,0,1,1.73,4.18,11.61,11.61,0,0,1-1.73,8.71,11.39,11.39,0,0,1-1.45,1.76,11.77,11.77,0,0,1-1.76,1.45,11.62,11.62,0,0,1-4.18,1.73A11.63,11.63,0,0,1,303.63,386.13Z"/><path class="h" d="M383.84,258.41c-.94,0-1.88,0-2.82.14s-1.87.23-2.79.41-1.84.41-2.73.69-1.79.59-2.66.95a27.65,27.65,0,0,0-2.55,1.21c-.83.45-1.64.93-2.42,1.45s-1.54,1.08-2.27,1.68-1.42,1.23-2.09,1.89-1.3,1.37-1.89,2.09-1.16,1.48-1.68,2.27a29,29,0,0,0-2.66,5q-.54,1.31-.95,2.66c-.27.9-.5,1.81-.68,2.73a28.14,28.14,0,0,0-.41,2.79c-.09.94-.14,1.88-.14,2.82,0,13.53,20.89,38,27,44.95a2.26,2.26,0,0,0,3.37,0c6.15-6.92,27-31.41,27-44.95q0-1.41-.14-2.82a28.06,28.06,0,0,0-.41-2.79c-.18-.92-.41-1.84-.68-2.73s-.59-1.79-.95-2.66a27.62,27.62,0,0,0-1.2-2.55c-.44-.83-.93-1.64-1.45-2.42s-1.08-1.54-1.68-2.27a28.16,28.16,0,0,0-1.89-2.09,27.45,27.45,0,0,0-2.09-1.89q-1.09-.9-2.26-1.68t-2.42-1.45c-.83-.44-1.68-.85-2.55-1.21s-1.75-.68-2.66-1-1.81-.5-2.73-.69a27.91,27.91,0,0,0-2.79-.41C385.73,258.46,384.79,258.41,383.84,258.41Zm0,41.57a14,14,0,0,1-2.77-.27,14.2,14.2,0,0,1-11.16-11.16,14.16,14.16,0,0,1,0-5.54,13.71,13.71,0,0,1,.81-2.66A14.18,14.18,0,0,1,376,274a14.23,14.23,0,0,1,2.45-1.31,14.18,14.18,0,0,1,8.2-.81,14.19,14.19,0,0,1,9,6,14.54,14.54,0,0,1,1.31,2.46,14.27,14.27,0,0,1,0,10.88,14,14,0,0,1-1.31,2.46,14.38,14.38,0,0,1-1.76,2.16,14.23,14.23,0,0,1-2.16,1.77,13.88,13.88,0,0,1-2.46,1.32,14.12,14.12,0,0,1-5.44,1.09Z"/><path class="i" d="M383.16,270.88a15,15,0,1,0,15,15,15,15,0,0,0-15-15"/><path class="j" d="M130.41,412.37a4,4,0,0,0-3.89-4.06l-38.91-.49a3.93,3.93,0,0,0-3.92,4,3.86,3.86,0,0,0,3.82,4l38.9.49A3.93,3.93,0,0,0,130.41,412.37Z"/><path class="j" d="M88.61,357.39a3.93,3.93,0,0,0,3.3,4.49l28.36,3.77L86.2,386.6a4.17,4.17,0,0,0-1.77,4.48A3.9,3.9,0,0,0,87.79,394l38.42,5.11a3.93,3.93,0,0,0,4.43-3.39,4,4,0,0,0-3.38-4.5l-28.66-3.81L133,366.17a3.44,3.44,0,0,0,1.8-4.11,4,4,0,0,0-3.29-2.94L93,354A3.82,3.82,0,0,0,88.61,357.39Z"/><path class="j" d="M141.86,339.59c2.7-9.18-1.09-17.52-9-19.84-7.57-2.22-12.7,3.35-18.23,10.78-2.11,2.8-4.81,6.27-8.73,5.12-3.43-1-3.85-4.25-3-7.12,1-3.36,2.74-6,5.49-7.29a3.79,3.79,0,0,0,1.71-5.05,3.37,3.37,0,0,0-3.71-1.85c-5.12,1.39-8.95,6.12-10.55,11.59-2.24,7.63.27,14.91,8.11,17.21s12.57-2.93,17.27-9.08c3.59-4.73,6.12-7.64,9.41-6.67,4.55,1.34,5.5,5.11,4.26,9.32-1.32,4.48-4,7.12-6.73,7.91a3.89,3.89,0,0,0-2.72,2.78,3.62,3.62,0,0,0,4.71,4.43C134.49,350.73,139.7,346.94,141.86,339.59Z"/><path class="j" d="M120.22,266.16a3.93,3.93,0,0,0,1.82,5.27l20.93,9.7c6.43,3,9.36,10.37,6.59,16.33-2.92,6.29-10.36,8.8-16.84,5.79l-20.8-9.64a3.94,3.94,0,1,0-3.32,7.15l20.46,9.48c10.27,4.76,22.62.67,27.38-9.6,4.48-9.67-.2-22.14-10.46-26.89l-20.6-9.55A3.86,3.86,0,0,0,120.22,266.16Z"/><path class="j" d="M168.79,245.31A14.69,14.69,0,0,0,161.92,231c-7.64-5.12-18.05-2.7-23.46,5.37l-7.2,10.73a3.93,3.93,0,0,0,1.08,5.47l32.26,21.62a3.92,3.92,0,0,0,5.47-1.08,4,4,0,0,0-1-5.53l-8.49-5.69,4.31-6.43c.49-.73,1-1.55,1.38-2.32l15.89-.5c2.61-.09,3.89-2.4,3.78-4.59-.07-2-1.77-3.39-4.69-3.23Zm-29.22,2.55,5-7.52a9.08,9.08,0,0,1,12.88-2.7c4.18,2.8,5.12,8.09,2,12.76l-5,7.46Z"/><path class="j" d="M210.81,221.22a3.86,3.86,0,0,0-.23-5.52,3.92,3.92,0,0,0-5.19.63l-14.43,16-9.32-8.42,11.3-12.51a3.77,3.77,0,0,0-.27-5.36,3.63,3.63,0,0,0-5.2.42L176.17,219l-9-8.17,14.43-16c1.47-1.62,1.4-4.05.15-5.18a3.92,3.92,0,0,0-5.57.29l-17.12,19a3.88,3.88,0,0,0,.28,5.57l28.82,26a3.88,3.88,0,0,0,5.42-.12Z"/><path class="j" d="M190.58,176.13a3.86,3.86,0,0,0-.62,5.49l24.52,30.21a3.93,3.93,0,0,0,5.54.58l10-8.1c10-8.09,11.79-23,3.69-33A23.74,23.74,0,0,0,200.56,168Zm28,28.08L198.3,179.26l7-5.66c7.2-5.84,16.67-4.13,22.19,2.67,5.66,7,5.25,16.43-2,22.27Z"/><path class="j" d="M294.65,164.12a3.87,3.87,0,0,0,1.79-5.23,3.91,3.91,0,0,0-5.06-1.3l-19.25,9.65L266.5,156l15.07-7.56a3.77,3.77,0,0,0,1.7-5.09,3.64,3.64,0,0,0-5-1.5l-15.07,7.56-5.46-10.9L277,128.89c2-1,2.77-3.27,2-4.77a3.93,3.93,0,0,0-5.29-1.76l-22.84,11.45a3.88,3.88,0,0,0-1.75,5.29l17.41,34.71a3.88,3.88,0,0,0,5.09,1.86Z"/><path class="j" d="M315.52,131.61l7.38-19.91c.79-2,.21-4.46-1.7-5.36a4,4,0,0,0-5.29,2.14l-7,18.79L291.8,116.5a4.13,4.13,0,0,0-5.59,1.47,3.94,3.94,0,0,0,1.77,5.34L306,134.61l-7.66,20.47a4,4,0,0,0,2,5.27,3.67,3.67,0,0,0,5.08-2.07l7.17-19.38L330,150.18a3.81,3.81,0,0,0,5.36-1.47,4,4,0,0,0-1.64-5.38Z"/><path class="j" d="M345.42,147.74a4,4,0,0,0,3.27-4.59l-1.48-8.34,8.77-1.56c9.56-1.7,16-10.25,14.3-19.67A17.42,17.42,0,0,0,350,99.48l-12.72,2.26a3.93,3.93,0,0,0-3.19,4.57l6.79,38.24A3.93,3.93,0,0,0,345.42,147.74Zm-2.94-39.52,8.91-1.58c5.61-1,10.06,2.81,11,8.13s-2,10.21-7.57,11.2l-8.91,1.59Z"/><path class="j" d="M406,124.75a14.68,14.68,0,0,0,7.61-13.89c-.28-9.2-8.31-16.25-18-16l-12.91.4a3.93,3.93,0,0,0-3.82,4.06l1.19,38.82a3.93,3.93,0,0,0,4.06,3.82,4,4,0,0,0,3.89-4.06l-.31-10.21,7.73-.24c.88,0,1.82-.13,2.7-.23l9.66,12.63c1.59,2.07,4.21,1.77,5.93.4,1.57-1.21,1.72-3.41-.1-5.69ZM387,102.48l9-.28a9.08,9.08,0,0,1,9.69,8.91c.16,5-3.6,8.88-9.21,9l-9,.27Z"/><path class="j" d="M450.08,144.9a3.87,3.87,0,0,0,4.36-3.4,3.92,3.92,0,0,0-3.53-3.86l-21.4-2.44,1.42-12.47,16.75,1.91a3.77,3.77,0,0,0,4.2-3.34,3.64,3.64,0,0,0-3.37-4l-16.75-1.91,1.38-12.11,21.39,2.44c2.18.25,4.11-1.22,4.3-2.89a3.92,3.92,0,0,0-3.47-4.36L430,95.59a3.88,3.88,0,0,0-4.36,3.47l-4.39,38.59a3.88,3.88,0,0,0,3.25,4.34Z"/><path class="j" d="M471.26,150.38c9.27,2.36,17.46-1.73,19.5-9.73,1.95-7.64-3.8-12.57-11.43-17.82-2.87-2-6.44-4.57-5.43-8.54.88-3.47,4.11-4,7-3.27,3.39.86,6.06,2.52,7.48,5.22a3.79,3.79,0,0,0,5.11,1.53,3.38,3.38,0,0,0,1.71-3.79c-1.57-5.07-6.44-8.72-12-10.12-7.71-2-14.89.8-16.91,8.73s3.38,12.46,9.7,16.93c4.86,3.42,7.86,5.84,7,9.16-1.17,4.6-4.91,5.68-9.15,4.6-4.53-1.15-7.26-3.73-8.15-6.45a3.89,3.89,0,0,0-2.87-2.61,3.62,3.62,0,0,0-4.25,4.87C459.85,143.41,463.83,148.49,471.26,150.38Z"/><path class="j" d="M505.38,161.36c8.88,3.55,17.54.56,20.61-7.09,2.93-7.32-2.13-13-9-19.17-2.59-2.37-5.79-5.38-4.27-9.18,1.33-3.32,4.59-3.43,7.38-2.32,3.25,1.3,5.68,3.29,6.74,6.15a3.79,3.79,0,0,0,4.87,2.18,3.38,3.38,0,0,0,2.2-3.53c-.9-5.23-5.25-9.48-10.54-11.6-7.39-3-14.87-1.15-17.9,6.44s1.73,12.8,7.41,18.05c4.37,4,7,6.82,5.75,10-1.76,4.41-5.61,5-9.68,3.36-4.34-1.73-6.71-4.65-7.24-7.45a3.89,3.89,0,0,0-2.51-3,3.62,3.62,0,0,0-4.85,4.27C495,153,498.26,158.52,505.38,161.36Z"/><path class="j" d="M571.31,141a3.86,3.86,0,0,0-5.43,1l-21.73,32.28a3.93,3.93,0,0,0,1.07,5.47l10.66,7.17c10.66,7.18,25.45,4.55,32.62-6.11A23.74,23.74,0,0,0,582,148.17Zm-18.68,34.94,17.94-26.64,7.45,5c7.69,5.18,8.82,14.74,3.93,22-5,7.45-14.18,9.82-21.87,4.64Z"/><path class="j" d="M601.65,224.36a3.86,3.86,0,0,0,5.52-.16,3.91,3.91,0,0,0-.56-5.2l-15.8-14.63,8.53-9.21,12.37,11.46a3.77,3.77,0,0,0,5.36-.21,3.64,3.64,0,0,0-.35-5.2l-12.37-11.46,8.29-8.95,15.8,14.63c1.61,1.49,4,1.45,5.18.21a3.93,3.93,0,0,0-.21-5.57l-18.75-17.36a3.88,3.88,0,0,0-5.57.21l-26.39,28.49a3.88,3.88,0,0,0,.05,5.42Z"/><path class="j" d="M618.56,232.55,646,210a3.94,3.94,0,0,0,.49-5.61,3.88,3.88,0,0,0-5.55-.54l-30,24.68c-1.92,1.57-2.21,3.52-.54,5.55l15.4,18.71a3.88,3.88,0,0,0,5.55.54c1.18-1,1.48-3.48.09-5.18Z"/><path class="j" d="M632.38,262.86a4,4,0,0,0,5.51,1.13l32.3-21.7a3.92,3.92,0,0,0,1-5.49,3.86,3.86,0,0,0-5.41-1.11l-32.3,21.69A3.92,3.92,0,0,0,632.38,262.86Z"/><path class="j" d="M697.06,282.74a4.07,4.07,0,0,0-4.32-3.67l-35,3.86,22.91-26.54a4,4,0,0,0-.44-5.71c-2-1.66-4.2-1.25-5.93.8l-26.05,31.24c-1.43,1.66-2.21,3.64-1.12,5.71s2.66,2.72,5.37,2.38l41.07-3.76A3.9,3.9,0,0,0,697.06,282.74Z"/><path class="j" d="M668.28,338.58a3.86,3.86,0,0,0,5,2.44,3.92,3.92,0,0,0,1.93-4.86L668,315.85l11.85-4.16,5.58,15.91a3.77,3.77,0,0,0,4.84,2.32,3.63,3.63,0,0,0,2.12-4.77l-5.58-15.91,11.5-4,7.13,20.32c.73,2.07,2.89,3.16,4.47,2.61a3.93,3.93,0,0,0,2.41-5L703.9,299a3.88,3.88,0,0,0-5-2.41l-36.64,12.86a3.87,3.87,0,0,0-2.48,4.82Z"/><path class="j" d="M692.09,369.9A14.69,14.69,0,0,0,707,375.16c9-1.77,14.69-10.84,12.82-20.37l-2.48-12.68a3.93,3.93,0,0,0-4.63-3.11l-38.11,7.47a3.92,3.92,0,0,0-3.11,4.62,4,4,0,0,0,4.64,3.18l10-2,1.49,7.59c.17.86.42,1.78.66,2.63l-10.89,11.58c-1.78,1.91-1.06,4.45.57,5.91,1.45,1.35,3.64,1.14,5.6-1ZM711,347.45l1.74,8.88a9.08,9.08,0,0,1-7.21,11c-4.95,1-9.34-2.11-10.42-7.62l-1.73-8.81Z"/><path class="j" d="M678.64,402.13a4,4,0,0,0,4.14,3.74l12.25-.62,24.61,12.65a4,4,0,0,0,4.95-6.24L702,401l21.34-13.06a3.8,3.8,0,0,0,.09-5.56,4,4,0,0,0-5.63-.08l-23.14,15.12-12.25.61A3.93,3.93,0,0,0,678.64,402.13Z"/><path class="j" d="M177.21,606.78c8.86,9.7,24.27,10.65,34,1.74a24.16,24.16,0,0,0-32.6-35.67A24.08,24.08,0,0,0,177.21,606.78Zm5.55-5.07c-6.2-6.79-5.66-16.69,1.24-23s16.91-6.06,23.11.73,5.8,16.85-1.2,23.25A16.07,16.07,0,0,1,182.75,601.71Z"/><path class="j" d="M234,634.76a14.68,14.68,0,0,0,14.73-5.82c5.66-7.25,4-17.81-3.67-23.79l-10.19-7.95a3.93,3.93,0,0,0-5.54.69l-23.88,30.63a3.92,3.92,0,0,0,.68,5.53,4,4,0,0,0,5.59-.64l6.29-8.06,6.1,4.76c.69.54,1.48,1.07,2.22,1.55l-.63,15.89c-.09,2.61,2.11,4.05,4.3,4.09,2,.07,3.5-1.52,3.56-4.45Zm-.46-29.33,7.14,5.57a9.08,9.08,0,0,1,1.77,13c-3.1,4-8.44,4.53-12.87,1.07l-7.08-5.52Z"/><path class="j" d="M257.81,669.81c5.55,3.07,10.72,3.85,17.4,2.63a4.4,4.4,0,0,0,3.54-2.46l5.3-9.58a4,4,0,0,0-1.7-5.36L273,649.86a3.55,3.55,0,1,0-3.43,6.19l6.32,3.5-3.18,5.75c-3.63,1-7.52,0-11.09-2-7.73-4.28-10-14.11-5.68-21.84,4.74-8.56,14.29-11,21.7-6.93a17.36,17.36,0,0,1,7.61,9.47c.87,1.9,3.06,3.36,5,2.53a4,4,0,0,0,1.89-5.21c-2.12-6.27-5.45-10.36-10.94-13.4-11.56-6.4-26-1.61-32.23,9.69C242.64,649.14,246.83,663.72,257.81,669.81Z"/><path class="j" d="M319.42,649.38c-.11-2.91-.82-4.18-3-5s-4.12.22-5.59,1.94l-27.48,29.89c-2,2.24-1.54,5.34,1.41,6.41a3.78,3.78,0,0,0,4.25-1l4.75-5.43,19.91,7.19.19,7.21a3.64,3.64,0,0,0,2.61,3.51,3.86,3.86,0,0,0,5.14-4.12Zm-6.64,5.29.61,20.87L299,670.32Z"/><path class="j" d="M373.73,658.56a3.93,3.93,0,0,0-4.65,3.08l-5.19,28.14-19.21-35.09a4.18,4.18,0,0,0-4.38-2,3.9,3.9,0,0,0-3,3.22l-7,38.12a3.92,3.92,0,0,0,3.16,4.59,4,4,0,0,0,4.66-3.15L343.29,667l19.44,35.43a3.45,3.45,0,0,0,4,2,4,4,0,0,0,3.1-3.14l7.06-38.26A3.82,3.82,0,0,0,373.73,658.56Z"/><path class="j" d="M385.94,706.08a4,4,0,0,0,4.25-3.68l2.44-38.83a3.93,3.93,0,0,0-3.77-4.11,3.87,3.87,0,0,0-4.18,3.62l-2.44,38.83A3.93,3.93,0,0,0,385.94,706.08Z"/><path class="j" d="M424,706.78a23.15,23.15,0,0,0,16-7.19,4.13,4.13,0,0,0,.52-5.51c-1.32-1.61-3.94-1.33-5.62.07a16.86,16.86,0,0,1-11.29,5c-8.89.46-15.92-6.7-16.38-15.59-.5-9.7,6.29-16.85,14.82-17.29a16.65,16.65,0,0,1,11.62,4.07c1.81,1.15,4.45,1.23,5.6-.58a4,4,0,0,0-1.09-5.43,23.33,23.33,0,0,0-16.88-5.56c-13.34.7-22.65,12.8-22,25.27C400,697.14,411.2,707.44,424,706.78Z"/><path class="j" d="M449,674.62c2.23-.36,3.11-2.34,2.76-4.5L450.16,660c-.34-2.16-1.77-3.71-4-3.36s-3.11,2.27-2.77,4.43l1.6,10.09C445.33,673.35,446.69,675,449,674.62Z"/><path class="j" d="M479.35,698.32c9.28-2.32,14.55-9.81,12.55-17.81-1.91-7.65-9.32-9.26-18.52-10.26-3.48-.41-7.84-1-8.83-4.94-.87-3.47,1.71-5.47,4.62-6.2,3.4-.85,6.53-.66,9.07,1a3.79,3.79,0,0,0,5.22-1.08,3.38,3.38,0,0,0-.29-4.14c-3.79-3.71-9.81-4.62-15.33-3.23-7.72,1.93-12.73,7.78-10.74,15.71s8.89,9.36,16.57,10.3c5.9.71,9.69,1.41,10.52,4.74,1.15,4.6-1.62,7.33-5.87,8.39-4.53,1.14-8.16.16-10.23-1.8a3.88,3.88,0,0,0-3.77-.94,3.62,3.62,0,0,0-1.43,6.3C466,697.59,471.91,700.18,479.35,698.32Z"/><path class="j" d="M538.76,648.9a10.78,10.78,0,0,0,.89-10.46,12.87,12.87,0,0,0-17.27-6.13l-15.07,7.23a3.86,3.86,0,0,0-1.88,5.19l16.86,35.15a3.86,3.86,0,0,0,5.23,1.79L543,674.24a14,14,0,0,0,6.84-18.66A11.94,11.94,0,0,0,538.76,648.9Zm-13.43-9.27a5.37,5.37,0,1,1,4.64,9.68l-11.06,5.3-4.64-9.68Zm2.29,33.14-5.3-11.06L534,656.13a6.38,6.38,0,0,1,8.64,2.66,6.46,6.46,0,0,1-3.27,8.37Z"/><path class="j" d="M589,646.31a3.86,3.86,0,0,0,1.12-5.41,3.91,3.91,0,0,0-5.18-.65l-17.88,12-7-10.42,14-9.4a3.77,3.77,0,0,0,1-5.27,3.63,3.63,0,0,0-5.14-.85l-14,9.4-6.79-10.12,17.88-12c1.82-1.22,2.34-3.59,1.4-5a3.92,3.92,0,0,0-5.47-1.08l-21.21,14.24a3.88,3.88,0,0,0-1.08,5.47l21.65,32.24a3.88,3.88,0,0,0,5.29,1.2Z"/><path class="j" d="M609.83,629.86c7.14-6.36,8.35-15.44,2.87-21.6-5.24-5.89-12.55-3.89-21.17-.52-3.28,1.25-7.4,2.77-10.12-.28-2.37-2.68-1-5.64,1.22-7.63,2.62-2.33,5.48-3.61,8.52-3.28a3.79,3.79,0,0,0,4.13-3.38,3.38,3.38,0,0,0-2.17-3.54c-5.08-1.54-10.83.45-15.09,4.24-5.95,5.29-7.68,12.79-2.25,18.89S588,617,595.24,614.22c5.55-2.11,9.24-3.23,11.52-.67,3.15,3.55,2,7.25-1.32,10.16-3.49,3.11-7.16,3.93-9.91,3.14a3.89,3.89,0,0,0-3.77.92A3.62,3.62,0,0,0,593.4,634C597.67,635.41,604.1,635,609.83,629.86Z"/><path class="j" d="M593.4,580.67a3.7,3.7,0,1,0,5.58,4.82l7.16-8.29,26.8,23.14a3.92,3.92,0,0,0,5.56-.41,4,4,0,0,0-.36-5.61l-26.8-23.14,7.11-8.23a3.88,3.88,0,0,0,0-5.33,3.93,3.93,0,0,0-5.55.51Z"/><path class="i" d="M270.21,280.15a13.5,13.5,0,1,0,13.5,13.5,13.5,13.5,0,0,0-13.5-13.5"/><path class="i" d="M303.59,362a12,12,0,1,0,12,12,12,12,0,0,0-12-12"/><g class="k"><path class="l" d="M404.86,773.11c-203.05,0-368.25-165.2-368.25-368.25S201.8,36.61,404.86,36.61,773.11,201.8,773.11,404.86,607.91,773.11,404.86,773.11Zm0-730C205.4,43.13,43.13,205.4,43.13,404.86S205.4,766.57,404.86,766.57,766.57,604.31,766.57,404.86,604.31,43.13,404.86,43.13Z"/></g></svg>