<svg xmlns="http://www.w3.org/2000/svg" xmlns:xlink="http://www.w3.org/1999/xlink" viewBox="0 0 810 810"><defs><style>.a{fill:none;}.b{fill:#7b7777;}.c{clip-path:url(#a);}.d{fill:#babbbc;}.e{fill:#7e7e7e;}.f{clip-path:url(#b);}.g{clip-path:url(#c);}.h{clip-path:url(#d);}.i{fill:#fff;}.j{fill:#7b7b7c;}.k{clip-path:url(#g);}.l{clip-path:url(#h);}.m{clip-path:url(#i);}.n{clip-path:url(#j);}.o{clip-path:url(#k);}.p{clip-path:url(#l);}.q{fill:#fdfdfd;}.r{clip-path:url(#m);}</style><clipPath id="a"><rect class="a" x="198.5" y="198.5" width="413.25" height="413.25"/></clipPath><clipPath id="b"><rect class="a" x="198.5" y="352" width="49.5" height="157"/></clipPath><clipPath id="c"><rect class="a" x="298" y="562" width="157" height="49.75"/></clipPath><clipPath id="d"><rect class="a" x="352" y="198.5" width="160" height="51.5"/></clipPath><clipPath id="g"><rect class="a" x="393.43" y="424.19" width="48.75" height="54"/></clipPath><clipPath id="h"><rect class="a" x="194.02" y="194.02" width="422.25" height="422.25"/></clipPath><clipPath id="i"><rect class="a" x="194.02" y="351" width="50.98" height="160"/></clipPath><clipPath id="j"><rect class="a" x="296" y="565" width="160" height="51.27"/></clipPath><clipPath id="k"><rect class="a" x="350" y="194.02" width="165" height="52.98"/></clipPath><clipPath id="l"><rect class="a" x="276" y="283" width="251.94" height="231"/></clipPath><clipPath id="m"><rect class="a" x="36.61" y="36.61" width="736.5" height="736.5"/></clipPath></defs><title>expiration2</title><path class="b" d="M124.24,344.59,90,335.16A3.94,3.94,0,0,0,85.17,338a3.88,3.88,0,0,0,2.75,4.85l37.44,10.33c2.39.66,4.15-.22,4.85-2.75L136.65,327a3.88,3.88,0,0,0-2.75-4.85c-1.48-.41-3.7.8-4.29,2.91Z"/><path class="b" d="M148.24,300.48c5.46-11.95.31-26.5-11.71-32a24.16,24.16,0,0,0-20.07,44A24.08,24.08,0,0,0,148.24,300.48Zm-6.84-3.12c-3.82,8.37-13.14,11.73-21.64,7.85s-12.19-13.2-8.37-21.56,13.23-11.93,21.87-8A16.08,16.08,0,0,1,141.41,297.36Z"/><path class="b" d="M143.42,216.82a3.93,3.93,0,0,0,.87,5.51l23.45,16.4-39.9,2.91a4.18,4.18,0,0,0-3.64,3.16,3.9,3.9,0,0,0,1.67,4.11l31.76,22.21a3.92,3.92,0,0,0,5.49-1,4,4,0,0,0-.93-5.55L138.51,248l40.31-3a3.44,3.44,0,0,0,3.48-2.82,4,4,0,0,0-1.57-4.12l-31.88-22.3A3.82,3.82,0,0,0,143.42,216.82Z"/><path class="b" d="M204.5,219.68c4.47-4.51,6.62-9.27,7.26-16a4.39,4.39,0,0,0-1.41-4.07l-7.78-7.71a4,4,0,0,0-5.62.18l-7.5,7.57a3.55,3.55,0,1,0,5,5l5.09-5.13,4.67,4.63c0,3.77-2,7.23-4.91,10.14-6.22,6.27-16.29,5.75-22.56-.46C169.8,206.88,170,197,176,191a17.34,17.34,0,0,1,11.18-4.75c2.06-.32,4.07-2,3.8-4.15a4,4,0,0,0-4.5-3.23c-6.61.34-11.45,2.43-15.87,6.88-9.3,9.39-8.61,24.56.56,33.65C180.48,228.66,195.66,228.6,204.5,219.68Z"/><path class="b" d="M260.27,176a3.86,3.86,0,0,0,1.21-5.39,3.91,3.91,0,0,0-5.18-.74l-18.08,11.7L231.4,171l14.16-9.16a3.77,3.77,0,0,0,1.13-5.25,3.64,3.64,0,0,0-5.13-.94l-14.16,9.16-6.62-10.23,18.08-11.7c1.84-1.19,2.39-3.55,1.48-5a3.93,3.93,0,0,0-5.45-1.17l-21.45,13.88a3.88,3.88,0,0,0-1.16,5.45l21.1,32.6a3.88,3.88,0,0,0,5.27,1.29Z"/><path class="b" d="M277.45,141.37l5.16-20.6c.56-2.11-.28-4.45-2.28-5.14a4,4,0,0,0-5,2.71l-4.89,19.44-18.2-8.84a4.14,4.14,0,0,0-5.39,2.08,3.94,3.94,0,0,0,2.35,5.11l19.2,9.26L263,166.57a4,4,0,0,0,2.55,5,3.67,3.67,0,0,0,4.82-2.62l5-20.05,18.5,9.34A3.81,3.81,0,0,0,299,156.2a4,4,0,0,0-2.21-5.17Z"/><path class="b" d="M308.94,154.13a4,4,0,0,0,2.74-4.91l-2.38-8.12,8.54-2.51c9.32-2.73,14.76-11.94,12.06-21.11a17.41,17.41,0,0,0-21.72-11.81l-12.4,3.64a3.92,3.92,0,0,0-2.67,4.89L304,151.45A3.92,3.92,0,0,0,308.94,154.13Zm-7.25-39,8.68-2.55c5.46-1.61,10.31,1.69,11.83,6.87s-.84,10.37-6.3,12L307.22,134Z"/><path class="b" d="M347.54,144.33a4,4,0,0,0,3.24-4.6l-7-38.27a3.92,3.92,0,0,0-4.65-3.08,3.86,3.86,0,0,0-3.18,4.52l7,38.27A3.92,3.92,0,0,0,347.54,144.33Z"/><path class="b" d="M385.3,123.29a14.68,14.68,0,0,0,7-14.22c-.7-9.17-9-15.86-18.72-15.12l-12.88,1A3.92,3.92,0,0,0,357,99.16L360,137.89a3.92,3.92,0,0,0,4.23,3.63,4,4,0,0,0,3.7-4.23l-.78-10.19,7.72-.59c.87-.07,1.81-.21,2.68-.35l10.23,12.18c1.69,2,4.29,1.57,5.94.13,1.51-1.29,1.56-3.49-.36-5.68ZM365.22,101.9l9-.69a9.08,9.08,0,0,1,10.09,8.46c.38,5-3.19,9-8.8,9.45l-9,.68Z"/><path class="b" d="M425.14,97.93c-.89-2.78-1.91-3.8-4.25-4S417,95.28,416,97.33l-18.42,36.18c-1.3,2.68,0,5.56,3.08,5.79a3.77,3.77,0,0,0,3.82-2.13l3.12-6.5,21.11,1.57,2.13,6.89a3.64,3.64,0,0,0,3.46,2.67,3.85,3.85,0,0,0,3.84-5.35Zm-5,6.88,6.21,19.93-15.29-1.14Z"/><path class="b" d="M451.53,97.36a3.69,3.69,0,1,0-1.58,7.2l10.69,2.35L453,141.49a3.93,3.93,0,0,0,3,4.7,4,4,0,0,0,4.77-3l7.6-34.57L479,111a3.88,3.88,0,0,0,4.68-2.56,3.93,3.93,0,0,0-3.09-4.64Z"/><path class="b" d="M482,153.25a4,4,0,0,0,5-2.51l12-37a3.93,3.93,0,0,0-2.62-4.92,3.86,3.86,0,0,0-4.95,2.46l-12,37A3.93,3.93,0,0,0,482,153.25Z"/><path class="b" d="M513.88,166.58c11.88,5.61,26.5.64,32.13-11.31a24.16,24.16,0,0,0-43.7-20.62A24.08,24.08,0,0,0,513.88,166.58Zm3.21-6.8c-8.32-3.93-11.57-13.29-7.58-21.74s13.34-12,21.66-8.1,11.77,13.38,7.71,22A16.07,16.07,0,0,1,517.08,159.79Z"/><path class="b" d="M597.6,162.8a3.93,3.93,0,0,0-5.52.8l-16.69,23.24L573,146.91a4.17,4.17,0,0,0-3.11-3.67,3.9,3.9,0,0,0-4.13,1.62l-22.61,31.48a3.93,3.93,0,0,0,.9,5.5,4,4,0,0,0,5.56-.86l16.86-23.48,2.48,40.34a3.44,3.44,0,0,0,2.77,3.52,4,4,0,0,0,4.14-1.52l22.7-31.6A3.82,3.82,0,0,0,597.6,162.8Z"/><path class="b" d="M629.92,192.48a3.86,3.86,0,0,0-5.5-.45L595,217.5a3.92,3.92,0,0,0-.4,5.56l8.41,9.71c8.41,9.71,23.37,11.05,33.09,2.64a23.74,23.74,0,0,0,2.24-33.22Zm-27.18,28.83,24.29-21,5.88,6.79c6.07,7,4.66,16.53-2,22.27-6.79,5.88-16.25,5.77-22.32-1.25Z"/><path class="b" d="M669.62,251.26c1.72-2.35,2-3.78.73-5.77s-3.36-2.39-5.58-2l-40.11,6.31c-2.94.52-4.53,3.22-2.88,5.89a3.77,3.77,0,0,0,4,1.84l7.09-1.29,11.12,18-4.34,5.76a3.64,3.64,0,0,0-.13,4.37,3.86,3.86,0,0,0,6.59,0Zm-8.49,0L648.63,268l-8.05-13Z"/><path class="b" d="M685.56,272.29a3.69,3.69,0,1,0-6.76,2.94l4.37,10L650.71,299.4a3.93,3.93,0,0,0-2,5.19,4,4,0,0,0,5.22,2.11l32.46-14.13,4.34,10a3.89,3.89,0,0,0,4.82,2.29,3.93,3.93,0,0,0,1.95-5.23Z"/><path class="b" d="M665.14,353.71a3.86,3.86,0,0,0,4.79,2.75,3.92,3.92,0,0,0,2.23-4.73L666.33,331l12.09-3.4L683,343.83a3.77,3.77,0,0,0,4.68,2.63,3.64,3.64,0,0,0,2.41-4.62l-4.57-16.23,11.73-3.3L703.08,343c.59,2.11,2.69,3.34,4.3,2.89a3.92,3.92,0,0,0,2.73-4.86l-6.92-24.59a3.88,3.88,0,0,0-4.86-2.73l-37.38,10.52a3.88,3.88,0,0,0-2.79,4.65Z"/><path class="b" d="M177.21,625.26c8.86,9.7,24.27,10.65,34,1.74a24.16,24.16,0,0,0-32.6-35.67A24.08,24.08,0,0,0,177.21,625.26Zm5.55-5.07c-6.2-6.79-5.66-16.69,1.24-23s16.91-6.06,23.11.73,5.8,16.85-1.2,23.25A16.07,16.07,0,0,1,182.75,620.19Z"/><path class="b" d="M234,653.23a14.68,14.68,0,0,0,14.73-5.82c5.66-7.25,4-17.81-3.67-23.79l-10.19-7.95a3.93,3.93,0,0,0-5.54.69L205.45,647a3.92,3.92,0,0,0,.68,5.53,4,4,0,0,0,5.59-.64l6.29-8.06,6.1,4.76c.69.54,1.48,1.07,2.22,1.55L225.7,666c-.09,2.61,2.11,4.05,4.3,4.09,2,.07,3.5-1.52,3.56-4.45Zm-.46-29.33,7.14,5.57a9.08,9.08,0,0,1,1.77,13c-3.1,4-8.44,4.53-12.87,1.07l-7.08-5.52Z"/><path class="b" d="M257.81,688.28c5.55,3.07,10.72,3.85,17.4,2.63a4.4,4.4,0,0,0,3.54-2.46l5.3-9.58a4,4,0,0,0-1.7-5.36L273,668.33a3.55,3.55,0,1,0-3.43,6.19l6.32,3.5-3.18,5.75c-3.63,1-7.52,0-11.09-2-7.73-4.28-10-14.11-5.68-21.84,4.74-8.56,14.29-11,21.7-6.93a17.36,17.36,0,0,1,7.61,9.47c.87,1.9,3.06,3.36,5,2.53a4,4,0,0,0,1.89-5.21c-2.12-6.27-5.45-10.36-10.94-13.4-11.56-6.4-26-1.61-32.23,9.69C242.64,667.61,246.83,682.2,257.81,688.28Z"/><path class="b" d="M319.42,667.85c-.11-2.91-.82-4.18-3-5s-4.12.22-5.59,1.94l-27.48,29.89c-2,2.24-1.54,5.34,1.41,6.41a3.78,3.78,0,0,0,4.25-1l4.75-5.43,19.91,7.19.19,7.21a3.64,3.64,0,0,0,2.61,3.51,3.86,3.86,0,0,0,5.14-4.12Zm-6.64,5.29L313.4,694,299,688.79Z"/><path class="b" d="M373.73,677a3.93,3.93,0,0,0-4.65,3.08l-5.19,28.14-19.21-35.09a4.18,4.18,0,0,0-4.38-2,3.9,3.9,0,0,0-3,3.22l-7,38.12a3.92,3.92,0,0,0,3.16,4.59,4,4,0,0,0,4.66-3.15l5.25-28.43L362.73,721a3.45,3.45,0,0,0,4,2,4,4,0,0,0,3.1-3.14l7.06-38.26A3.82,3.82,0,0,0,373.73,677Z"/><path class="b" d="M385.94,724.55a4,4,0,0,0,4.25-3.68L392.64,682a3.93,3.93,0,0,0-3.77-4.11,3.87,3.87,0,0,0-4.18,3.62l-2.44,38.83A3.93,3.93,0,0,0,385.94,724.55Z"/><path class="b" d="M424,725.25a23.15,23.15,0,0,0,16-7.19,4.13,4.13,0,0,0,.52-5.51c-1.32-1.61-3.94-1.33-5.62.07a16.86,16.86,0,0,1-11.29,5c-8.89.46-15.92-6.7-16.38-15.59-.5-9.7,6.29-16.85,14.82-17.29a16.65,16.65,0,0,1,11.62,4.07c1.81,1.15,4.45,1.23,5.6-.58a4,4,0,0,0-1.09-5.43,23.33,23.33,0,0,0-16.88-5.56c-13.34.7-22.65,12.8-22,25.27C400,715.61,411.2,725.92,424,725.25Z"/><path class="b" d="M449,693.09c2.23-.36,3.11-2.34,2.76-4.5l-1.6-10.09c-.34-2.16-1.77-3.71-4-3.36s-3.11,2.27-2.77,4.43l1.6,10.09C445.33,691.83,446.69,693.46,449,693.09Z"/><path class="b" d="M479.35,716.79c9.28-2.32,14.55-9.81,12.55-17.81-1.91-7.65-9.32-9.26-18.52-10.26-3.48-.41-7.84-1-8.83-4.94-.87-3.47,1.71-5.47,4.62-6.2,3.4-.85,6.53-.66,9.07,1a3.79,3.79,0,0,0,5.22-1.08,3.38,3.38,0,0,0-.29-4.14c-3.79-3.71-9.81-4.62-15.33-3.23-7.72,1.93-12.73,7.78-10.74,15.71s8.89,9.36,16.57,10.3c5.9.71,9.69,1.41,10.52,4.74,1.15,4.6-1.62,7.33-5.87,8.39-4.53,1.14-8.16.16-10.23-1.8a3.88,3.88,0,0,0-3.77-.94,3.62,3.62,0,0,0-1.43,6.3C466,716.06,471.91,718.65,479.35,716.79Z"/><path class="b" d="M538.76,667.37a10.78,10.78,0,0,0,.89-10.46,12.87,12.87,0,0,0-17.27-6.13L507.31,658a3.86,3.86,0,0,0-1.88,5.19l16.86,35.15a3.86,3.86,0,0,0,5.23,1.79L543,692.71A14,14,0,0,0,549.82,674,11.94,11.94,0,0,0,538.76,667.37Zm-13.43-9.27a5.37,5.37,0,1,1,4.64,9.68l-11.06,5.3-4.64-9.68Zm2.29,33.14-5.3-11.06L534,674.6a6.38,6.38,0,0,1,8.64,2.66,6.46,6.46,0,0,1-3.27,8.37Z"/><path class="b" d="M589,664.78a3.86,3.86,0,0,0,1.12-5.41,3.91,3.91,0,0,0-5.18-.65l-17.88,12-7-10.42,14-9.4a3.77,3.77,0,0,0,1-5.27,3.63,3.63,0,0,0-5.14-.85l-14,9.4-6.79-10.12,17.88-12c1.82-1.22,2.34-3.59,1.4-5A3.92,3.92,0,0,0,563,626l-21.21,14.24a3.88,3.88,0,0,0-1.08,5.47l21.65,32.24a3.88,3.88,0,0,0,5.29,1.2Z"/><path class="b" d="M609.83,648.34c7.14-6.36,8.35-15.44,2.87-21.6-5.24-5.89-12.55-3.89-21.17-.52-3.28,1.25-7.4,2.77-10.12-.28-2.37-2.68-1-5.64,1.22-7.63,2.62-2.33,5.48-3.61,8.52-3.28a3.79,3.79,0,0,0,4.13-3.38,3.38,3.38,0,0,0-2.17-3.54c-5.08-1.54-10.83.45-15.09,4.24-5.95,5.29-7.68,12.79-2.25,18.89s12.22,4.18,19.46,1.45c5.55-2.11,9.24-3.23,11.52-.67,3.15,3.55,2,7.25-1.32,10.16-3.49,3.11-7.16,3.93-9.91,3.14a3.89,3.89,0,0,0-3.77.92,3.62,3.62,0,0,0,1.65,6.25C597.67,653.88,604.1,653.43,609.83,648.34Z"/><path class="b" d="M593.4,599.14A3.7,3.7,0,1,0,599,604l7.16-8.29,26.8,23.14a3.92,3.92,0,0,0,5.56-.41,4,4,0,0,0-.36-5.61l-26.8-23.14,7.11-8.23a3.88,3.88,0,0,0,0-5.33,3.93,3.93,0,0,0-5.55.51Z"/><g class="c"><path class="d" d="M611.67,405.2q0,5.07-.25,10.14t-.75,10.11q-.5,5-1.24,10.06t-1.73,10q-1,5-2.22,9.89t-2.7,9.77q-1.47,4.85-3.18,9.63t-3.65,9.46q-1.94,4.69-4.11,9.27t-4.56,9.05q-2.39,4.47-5,8.82t-5.42,8.57q-2.82,4.21-5.84,8.29t-6.24,8q-3.22,3.92-6.62,7.68t-7,7.34q-3.59,3.59-7.34,7t-7.68,6.62q-3.92,3.22-8,6.24t-8.29,5.84q-4.21,2.82-8.57,5.43t-8.82,5q-4.47,2.39-9.05,4.56T484.16,596q-4.68,1.94-9.46,3.65t-9.62,3.18q-4.85,1.47-9.77,2.7t-9.89,2.22q-5,1-10,1.73t-10.06,1.24q-5,.5-10.11.75t-10.13.25q-5.07,0-10.14-.25t-10.11-.75q-5-.5-10.06-1.24t-10-1.73q-5-1-9.89-2.22t-9.77-2.7q-4.85-1.47-9.62-3.18T326.08,596q-4.69-1.95-9.27-4.11t-9.05-4.56q-4.47-2.39-8.82-5t-8.57-5.43q-4.21-2.81-8.29-5.84t-8-6.24q-3.92-3.22-7.68-6.62t-7.34-7q-3.58-3.58-7-7.34t-6.62-7.68q-3.22-3.92-6.24-8t-5.84-8.29q-2.82-4.22-5.43-8.57t-5-8.82q-2.39-4.47-4.56-9.05t-4.11-9.27q-1.94-4.68-3.65-9.46t-3.18-9.62q-1.47-4.86-2.7-9.77t-2.22-9.89q-1-5-1.73-10t-1.24-10.06q-.5-5-.75-10.11t-.25-10.14q0-5.07.25-10.13t.75-10.11q.5-5.05,1.24-10.06t1.73-10q1-5,2.22-9.89t2.7-9.77q1.47-4.85,3.18-9.62t3.65-9.46q1.94-4.68,4.11-9.27t4.56-9.05q2.39-4.48,5-8.82t5.43-8.57q2.81-4.22,5.84-8.29t6.24-8q3.22-3.92,6.62-7.68t7-7.34q3.59-3.59,7.34-7t7.68-6.62q3.92-3.22,8-6.23t8.29-5.84q4.22-2.81,8.57-5.42t8.82-5q4.47-2.39,9.05-4.56t9.27-4.11q4.68-1.94,9.46-3.65t9.63-3.18q4.86-1.47,9.77-2.7t9.89-2.22q5-1,10-1.73t10.06-1.24q5-.5,10.11-.75t10.14-.25q5.07,0,10.13.25t10.11.75q5.05.5,10.06,1.24t10,1.73q5,1,9.89,2.22t9.77,2.7q4.85,1.47,9.63,3.18t9.46,3.65q4.69,1.94,9.27,4.11t9.05,4.56q4.47,2.39,8.82,5t8.57,5.42q4.22,2.82,8.29,5.84t8,6.23q3.92,3.22,7.68,6.63t7.34,7q3.59,3.59,7,7.34t6.62,7.68q3.22,3.92,6.24,8t5.84,8.29q2.81,4.21,5.42,8.57t5,8.82q2.39,4.47,4.56,9.05t4.11,9.27q1.94,4.69,3.65,9.46t3.18,9.63q1.47,4.85,2.7,9.77t2.22,9.89q1,5,1.73,10T610.67,385q.5,5,.75,10.11T611.67,405.2Z"/></g><path class="e" d="M583.34,302.48c3.5,19.09,2.37,40.82-3.57,64.31a242.57,242.57,0,0,1-20.09,52l43.22,43.94A206.82,206.82,0,0,0,610.26,422q.81-10.34.6-20.71a207.36,207.36,0,0,0-5-41.08q-2.28-10.12-5.55-20a207.56,207.56,0,0,0-16.94-37.76Z"/><path class="e" d="M421,557.77l44.2,44.94a204.69,204.69,0,0,0,80.45-46.61l-51.07-51.91A329.21,329.21,0,0,1,421,557.77Z"/><path class="e" d="M404.66,412.73l-64.31,63.13,73.14,74.37A318.57,318.57,0,0,0,487.39,497Z"/><path class="e" d="M548.07,257.48c-32.87-29.18-89.16-27.2-146.48.56l71.67,72.86L548,257.38Z"/><path class="e" d="M555.18,264.68l-74.73,73.52,71.75,72.93C580.9,354.31,583.88,298.05,555.18,264.68Z"/><path class="e" d="M501.82,497.11,552.89,549a204.55,204.55,0,0,0,46.43-75.45L554.5,428A330.14,330.14,0,0,1,501.82,497.11Z"/><path class="e" d="M321.93,314.21l82.86,84.25,61.38-60.35-74-75.25a319.64,319.64,0,0,0-70.23,51.45Z"/><path class="e" d="M494.72,489.91a319.55,319.55,0,0,0,52.51-69.46l-74-75.14-61.38,60.35Z"/><path class="e" d="M314.82,307a330.73,330.73,0,0,1,69.95-51.66L340,209.81a204.83,204.83,0,0,0-76.22,45.25Z"/><path class="e" d="M256.53,262.16a204.58,204.58,0,0,0-47.93,79.75l44.2,44.94a330.1,330.1,0,0,1,54.79-72.68Z"/><path class="e" d="M314.72,321.28a318.4,318.4,0,0,0-54.46,73l73.14,74.34,64.31-63.13Z"/><path class="e" d="M254.27,546.5l72-70.74-70.77-72C228.41,459.35,226.3,513.86,254.27,546.5Z"/><g class="f"><path class="e" d="M226.1,508.71c-3.5-19.06-2.37-40.8,3.57-64.31a238.69,238.69,0,0,1,18.24-48.26l-42.55-43.22q-2.56,9.76-4.16,19.71t-2.23,20q-.63,10.07-.28,20.14t1.68,20.07q1.33,10,3.63,19.81T209.54,472q3.23,9.55,7.39,18.74T226.1,508.71Z"/></g><path class="e" d="M404,554.92l-70.8-72-72,70.75C293.52,582.26,348.06,581,404,554.92Z"/><g class="g"><path class="e" d="M298.64,582.47q8.65,5.17,17.78,9.47t18.61,7.7q9.49,3.39,19.27,5.85t19.75,4q10,1.49,20,2t20.14.05q10.07-.46,20.05-1.9t19.77-3.84l-42.55-43.35A239.28,239.28,0,0,1,363,579.84C339.5,585.58,317.68,586.3,298.64,582.47Z"/></g><g class="h"><path class="e" d="M511.85,228.46c-19-3.94-40.75-3.32-64.31,2.08a242.92,242.92,0,0,0-52.45,18.88l-43-44.22a207,207,0,0,1,102.56-.57q10.07,2.51,19.83,6a206.5,206.5,0,0,1,37.36,17.81Z"/></g><path class="i" d="M379.32,551.29a150.71,150.71,0,0,1-13.68,9.05c14.48,3.37,53.33,3,91.48-6,38.23-8.08,75.79-24.7,90-33.88a211.19,211.19,0,0,1-48.88,29.71c-33.11,15-85.56,30.2-144.06,25a83.33,83.33,0,0,0,1.88,11.27c-23.59-9.54-39.43-22.79-48.54-36.92a177.63,177.63,0,0,0,71.77,1.75Z"/><path class="i" d="M246.88,414.38a105.87,105.87,0,0,1-12.48-7.48c-3.57,12-1,41.39,12.66,67.48,12.53,26.45,36,49.62,48.88,57.57.52-.52-19.6-6.79-41.16-27.66C233.61,483.94,211,449,214.65,403q-7.25,2.21-14.48,5a130.58,130.58,0,0,1,45.22-48.6,81.42,81.42,0,0,0,1.49,54.95Z"/><path class="i" d="M467.38,327c0,1.65.31,75.5.39,95.93-31.87,16.77-54.85,32.36-54.25,43.73a7.11,7.11,0,0,0,.69,2.83.66.66,0,0,0,.21.57c0,.18.26.31.36.49a7.18,7.18,0,0,0,2,2.11c9.31,6.66,34.83-4.32,66.14-22.15,17.16,11.06,79.23,51.12,80.62,52,3.76,2.34,9-1,6.1-5.35-1-1.49-2.86-4.14-5.3-7.59-8.82-12.43-25.18-35-36-49.78l-2.8-2.86-.46-.62-6.92-6.95c16.11-9.93,29.25-18.29,39.18-25.29l2-1.08,4.17,3.09,12.86,9.5a2,2,0,0,0,1.88,0l10.29-5.15.93-.49c.59-.31.8-.9.46-1.31l-14.71-18.6c3.45-3.88,4.61-7,3.32-9.34s-4.53-3.06-9.65-2.24l-8-22.64a.86.86,0,0,0-1.34-.34l-.9.54-9.85,5.79a1.88,1.88,0,0,0-.68.68,2,2,0,0,0-.27.92l1.11,15.92.36,5.14-2,1.08c-11.24,4.58-25.39,11.16-42.39,19.4l-2.14-9.6-.28-.72-.9-3.91c-6.66-17-16.9-42.94-22.61-57.06-1.57-3.89-2.83-6.89-3.52-8.54C473.06,319.94,467.4,322.62,467.38,327Z"/><path class="i" d="M270.42,270.27c-.81,0-1.63,0-2.44.12s-1.62.2-2.41.36-1.59.36-2.37.59-1.54.51-2.3.82a25.26,25.26,0,0,0-4.3,2.3c-.68.45-1.33.94-2,1.45a24,24,0,0,0-1.81,1.64c-.57.57-1.12,1.18-1.64,1.81s-1,1.28-1.45,2a24.11,24.11,0,0,0-1.25,2.09,23.2,23.2,0,0,0-1,2.21q-.47,1.13-.82,2.3c-.24.78-.43,1.57-.59,2.37s-.28,1.6-.36,2.41-.12,1.62-.12,2.44c0,11.7,18,32.9,23.41,38.87a1.94,1.94,0,0,0,.66.49,2,2,0,0,0,1.61,0,1.94,1.94,0,0,0,.66-.49c5.33-6,23.41-27.17,23.41-38.87q0-1.22-.12-2.44c-.08-.81-.2-1.62-.36-2.41s-.36-1.59-.59-2.37-.51-1.54-.82-2.3a25.26,25.26,0,0,0-2.3-4.3q-.68-1-1.45-2a25.1,25.1,0,0,0-3.45-3.45q-.94-.77-2-1.45a25.26,25.26,0,0,0-4.3-2.3c-.75-.31-1.52-.59-2.3-.82s-1.57-.43-2.37-.59-1.6-.28-2.41-.36S271.24,270.27,270.42,270.27Zm0,36A12.36,12.36,0,0,1,268,306a12.25,12.25,0,0,1-4.43-1.84,12.33,12.33,0,0,1-4.53-5.52,12.25,12.25,0,0,1-.7-2.3,12.21,12.21,0,0,1,0-4.8,12.27,12.27,0,0,1,1.84-4.43,12.3,12.3,0,0,1,3.39-3.39,12.25,12.25,0,0,1,4.43-1.84,12.39,12.39,0,0,1,4.8,0,12.25,12.25,0,0,1,4.43,1.84,12.07,12.07,0,0,1,1.86,1.53,12.3,12.3,0,0,1,1.53,1.86,12.45,12.45,0,0,1,1.13,2.13,12.26,12.26,0,0,1,.7,2.3,12.24,12.24,0,0,1-1.86,9.21,12.24,12.24,0,0,1-1.53,1.86,12.2,12.2,0,0,1-4,2.65,12.2,12.2,0,0,1-2.3.7,12.35,12.35,0,0,1-2.39.23Z"/><path class="i" d="M303.63,352.23q-1.15,0-2.3.11c-.76.08-1.52.19-2.27.34a23,23,0,0,0-2.23.56q-1.1.33-2.17.77a23.47,23.47,0,0,0-4.05,2.17q-1,.64-1.85,1.37t-1.7,1.55q-.81.81-1.55,1.7c-.48.59-.94,1.21-1.37,1.85s-.82,1.3-1.18,2-.69,1.37-1,2.08-.55,1.43-.77,2.16-.41,1.48-.56,2.23-.26,1.51-.34,2.27a22.61,22.61,0,0,0-.11,2.3c0,11,17.05,31,22.07,36.66a1.84,1.84,0,0,0,.63.45,1.85,1.85,0,0,0,1.5,0,1.84,1.84,0,0,0,.63-.45c5.14-5.64,22.07-25.73,22.07-36.66a22.5,22.5,0,0,0-.11-2.3q-.11-1.15-.34-2.28c-.15-.75-.34-1.5-.56-2.23s-.48-1.46-.78-2.16a22.51,22.51,0,0,0-1-2.08c-.36-.68-.76-1.34-1.18-2s-.89-1.25-1.37-1.85-1-1.16-1.55-1.71-1.11-1.05-1.71-1.54a23.39,23.39,0,0,0-3.82-2.55,23,23,0,0,0-2.08-1q-1.07-.44-2.17-.77c-.73-.22-1.48-.41-2.23-.55a22.54,22.54,0,0,0-2.28-.34Q304.79,352.23,303.63,352.23Zm0,33.91a11.56,11.56,0,0,1-2.26-.22,11.67,11.67,0,0,1-4.18-1.73,11.77,11.77,0,0,1-1.76-1.45A11.14,11.14,0,0,1,294,381a11.53,11.53,0,0,1-1.73-4.18,11.62,11.62,0,0,1,0-4.53,11.61,11.61,0,0,1,6.94-8.46,11.6,11.6,0,0,1,8.88,0,11.69,11.69,0,0,1,3.76,2.52,11.77,11.77,0,0,1,1.45,1.76,11.67,11.67,0,0,1,1.73,4.18,11.61,11.61,0,0,1-1.73,8.71,11.39,11.39,0,0,1-1.45,1.76,11.77,11.77,0,0,1-1.76,1.45,11.62,11.62,0,0,1-4.18,1.73A11.63,11.63,0,0,1,303.63,386.13Z"/><path class="i" d="M383.84,258.41c-.94,0-1.88,0-2.82.14s-1.87.23-2.79.41-1.84.41-2.73.69-1.79.59-2.66.95a27.65,27.65,0,0,0-2.55,1.21c-.83.45-1.64.93-2.42,1.45s-1.54,1.08-2.27,1.68-1.42,1.23-2.09,1.89-1.3,1.37-1.89,2.09-1.16,1.48-1.68,2.27a29,29,0,0,0-2.66,5q-.54,1.31-.95,2.66c-.27.9-.5,1.81-.68,2.73a28.14,28.14,0,0,0-.41,2.79c-.09.94-.14,1.88-.14,2.82,0,13.53,20.89,38,27,44.95a2.26,2.26,0,0,0,3.37,0c6.15-6.92,27-31.41,27-44.95q0-1.41-.14-2.82a28.06,28.06,0,0,0-.41-2.79c-.18-.92-.41-1.84-.68-2.73s-.59-1.79-.95-2.66a27.62,27.62,0,0,0-1.2-2.55c-.44-.83-.93-1.64-1.45-2.42s-1.08-1.54-1.68-2.27a28.16,28.16,0,0,0-1.89-2.09,27.45,27.45,0,0,0-2.09-1.89q-1.09-.9-2.26-1.68t-2.42-1.45c-.83-.44-1.68-.85-2.55-1.21s-1.75-.68-2.66-1-1.81-.5-2.73-.69a27.91,27.91,0,0,0-2.79-.41C385.73,258.46,384.79,258.41,383.84,258.41Zm0,41.57a14,14,0,0,1-2.77-.27,14.2,14.2,0,0,1-11.16-11.16,14.16,14.16,0,0,1,0-5.54,13.71,13.71,0,0,1,.81-2.66A14.18,14.18,0,0,1,376,274a14.23,14.23,0,0,1,2.45-1.31,14.18,14.18,0,0,1,8.2-.81,14.19,14.19,0,0,1,9,6,14.54,14.54,0,0,1,1.31,2.46,14.27,14.27,0,0,1,0,10.88,14,14,0,0,1-1.31,2.46,14.38,14.38,0,0,1-1.76,2.16,14.23,14.23,0,0,1-2.16,1.77,13.88,13.88,0,0,1-2.46,1.32,14.12,14.12,0,0,1-5.44,1.09Z"/><g class="c"><path class="i" d="M611.75,405.12q0,5.07-.25,10.14t-.75,10.11q-.5,5.05-1.24,10.07t-1.73,10q-1,5-2.22,9.89t-2.7,9.77q-1.47,4.86-3.18,9.63T596,484.19q-1.94,4.69-4.11,9.27t-4.56,9.06q-2.39,4.47-5,8.82t-5.43,8.57q-2.82,4.22-5.84,8.29t-6.24,8q-3.22,3.93-6.62,7.68t-7,7.35q-3.59,3.59-7.35,7t-7.68,6.63q-3.92,3.22-8,6.24t-8.29,5.84q-4.22,2.82-8.57,5.43t-8.82,5q-4.48,2.39-9.06,4.56T484.19,596q-4.69,1.94-9.46,3.65t-9.63,3.18q-4.85,1.47-9.77,2.7t-9.89,2.22q-5,1-10,1.73t-10.07,1.24q-5,.5-10.11.75t-10.14.25q-5.07,0-10.14-.25t-10.11-.75q-5.05-.5-10.07-1.24t-10-1.73q-5-1-9.89-2.22t-9.77-2.7q-4.86-1.47-9.63-3.18T326,596q-4.69-1.94-9.27-4.11t-9.06-4.56q-4.48-2.39-8.82-5t-8.57-5.43q-4.22-2.82-8.29-5.84t-8-6.24q-3.92-3.22-7.68-6.62t-7.35-7q-3.59-3.59-7-7.35t-6.62-7.68q-3.22-3.92-6.24-8t-5.84-8.29q-2.82-4.22-5.43-8.57t-5-8.82q-2.39-4.48-4.56-9.06t-4.11-9.27q-1.94-4.69-3.65-9.46t-3.18-9.63q-1.47-4.85-2.7-9.77t-2.22-9.89q-1-5-1.73-10t-1.24-10.07q-.5-5-.75-10.11t-.25-10.14q0-5.07.25-10.14t.75-10.11q.5-5.05,1.24-10.07t1.73-10q1-5,2.22-9.89t2.7-9.77q1.48-4.86,3.18-9.63t3.65-9.46q1.94-4.69,4.11-9.27t4.56-9.06q2.4-4.48,5-8.82t5.43-8.57q2.82-4.22,5.84-8.29t6.24-8q3.22-3.92,6.63-7.68t7-7.35q3.59-3.59,7.35-7t7.68-6.62q3.92-3.22,8-6.24t8.29-5.84q4.22-2.82,8.57-5.43t8.82-5q4.47-2.39,9.06-4.56t9.27-4.11q4.69-1.94,9.46-3.65t9.63-3.18q4.85-1.47,9.77-2.7t9.89-2.22q5-1,10-1.73t10.07-1.24q5-.5,10.11-.75t10.14-.25q5.07,0,10.14.25t10.11.75q5.05.5,10.07,1.24t10,1.73q5,1,9.89,2.22t9.77,2.7q4.86,1.48,9.63,3.18t9.46,3.65q4.69,1.94,9.27,4.11t9.06,4.56q4.47,2.4,8.82,5t8.57,5.43q4.22,2.82,8.29,5.84t8,6.24q3.93,3.22,7.68,6.63t7.35,7q3.59,3.59,7,7.35t6.63,7.68q3.22,3.92,6.24,8t5.84,8.29q2.82,4.22,5.43,8.57t5,8.82q2.39,4.47,4.56,9.06T596,326q1.94,4.69,3.65,9.46t3.18,9.63q1.47,4.85,2.7,9.77t2.22,9.89q1,5,1.73,10t1.24,10.07q.5,5,.75,10.11T611.75,405.12Z"/></g><path class="i" d="M505.25,312.14a5.11,5.11,0,0,1-.07,1.67,5.15,5.15,0,0,1-3.1,3.73,428,428,0,0,1-97.79,36.6A437.66,437.66,0,0,1,299.58,367a5.15,5.15,0,0,1-4.34-1.92,5.06,5.06,0,0,1-.81-1.43l-3.11-12.74c20.36.64,53.53-3.76,90.25-11.86l.88-.18,7.11-1.62,1.23-.29,8.39-2,8.36-2.11,1.16-.31,7.11-1.88.72-.21c36.36-9.83,67.86-21.3,85.59-31.29ZM392,306.25c55-13.48,91.41-16.19,104.48-14.82-7.08,4.68-23.6,12.38-49.2,20.87-6.64,2.21-13.93,4.45-21.8,6.74l-2,.59-3.78,1.05-4.17,1.16-2.93.8-5.38,1.41-2.29.59-7.9,2-7.93,1.9-2.37.54-5.3,1.21-3.14.7-4,.85-4.17.88-1.54.31q-12.23,2.47-22.77,4.17c-26.66,4.35-44.88,5.15-53.3,4.3,10.91-7.26,44.6-21.75,99.59-35.23Zm115.16-21.77c-13.87-5.3-61.76,0-117.09,13.54-64.34,15.8-114.52,36.88-112,47.09l5.15,21.31c1.36,5.54,7.31,9.34,14.82,9.34a458.63,458.63,0,0,0,54.3-3.35,458.59,458.59,0,0,0,53.52-9.75,459,459,0,0,0,52-16,458.3,458.3,0,0,0,49.73-22.05c6.59-3.52,10.14-9.57,8.77-15.11l-5.27-21.57C510.79,286.43,509.32,285.3,507.18,284.48Zm9.52,192.7a6.42,6.42,0,0,1-.32,2,6.24,6.24,0,0,1-.9,1.77,6.37,6.37,0,0,1-1.39,1.41,6.57,6.57,0,0,1-1.76.91,326.15,326.15,0,0,1-103.61,16.5A332.91,332.91,0,0,1,304,482.86a6.32,6.32,0,0,1-3.13-2.32,6.34,6.34,0,0,1-.87-1.77,6.25,6.25,0,0,1-.29-2V413.15c19.61,7.36,52.89,12.22,90.46,13.43h.8l7.28.18h19.71l7.34-.18H426c37.65-1.18,71-6.07,90.59-13.43Zm-108.5-90.07c56.62,0,92.64,8.16,105,14.13-8,3.86-25.86,8.62-52.75,11.48-7,.75-14.59,1.36-22.78,1.83h-2.11l-3.94.18-4.32.18H389l-4.07-.15-4.25-.18H379.1q-12.47-.69-23.16-1.82c-26.92-2.88-44.8-7.72-52.79-11.48,12.38-5.92,48.46-14.07,105.05-14.07Zm116.94,8.39c-12.23-11.37-59.94-19.87-116.94-19.87-66.29,0-120,11.45-120,25.73v75.45a17.85,17.85,0,0,0,1.91,8.05,17.72,17.72,0,0,0,3.24,4.5,17.57,17.57,0,0,0,2.1,1.82,17.77,17.77,0,0,0,2.36,1.47,18,18,0,0,0,2.56,1.09q13,4.31,26.35,7.57t26.86,5.45q13.54,2.19,27.21,3.3t27.39,1.13q13.72,0,27.39-1t27.22-3.21q13.55-2.15,26.88-5.37t26.37-7.48A18.08,18.08,0,0,0,518.6,493a18,18,0,0,0,4.43-3.3,18.06,18.06,0,0,0,1.78-2.12,18.06,18.06,0,0,0,3.14-7.62,18.17,18.17,0,0,0,.23-2.76V401.31a8.06,8.06,0,0,0-3-5.74"/><g class="c"><path class="j" d="M405.12,611.75c-113.93,0-206.62-92.7-206.62-206.62S291.19,198.5,405.12,198.5s206.63,92.69,206.63,206.63S519.05,611.75,405.12,611.75Zm0-409.59c-111.91,0-203,91.05-203,203s91.05,203,203,203,203-91,203-203S517,202.16,405.12,202.16Z"/></g><path class="e" d="M507.17,326.75c.42,1.69-.68,3.56-2.73,4.65-14.12,7.5-43.85,21.57-84.31,31.47a379.84,379.84,0,0,1-90.34,11c-2.28,0-4.09-1.15-4.52-2.87l-2.69-10.95c17.56.54,46.18-3.24,77.86-10.21l.74-.16q3-.67,6.13-1.39l1.05-.24q3.6-.84,7.24-1.73t7.22-1.81l1-.27q3.09-.79,6.13-1.61l.61-.17c31.38-8.46,58.55-18.32,73.86-26.91Zm-97.63-5.07c47.44-11.61,78.88-13.93,90.16-12.75-6.1,4-20.36,10.65-42.46,17.95-5.73,1.89-12,3.84-18.8,5.79l-1.75.5-3.27.92-3.61,1-2.53.68L422.65,337l-2,.51q-3.38.87-6.83,1.71c-2.3.56-4.58,1.1-6.84,1.63l-2.05.47-4.57,1-2.71.59-3.43.73-3.59.75-1.34.27c-7,1.43-13.6,2.62-19.65,3.6-23,3.74-38.72,4.44-46,3.69C333.13,345.74,362.1,333.29,409.54,321.68Zm99.28-18.77c-12-4.57-53.26-.05-101,11.63C352.24,328.13,309,346.26,311.14,355l4.51,18.32c1.17,4.76,6.32,8,12.78,8,88.83,0,156.74-31.22,180.79-44,5.69-3,8.75-8.23,7.58-13l-4.56-18.54C511.93,304.63,510.77,303.66,508.82,302.91ZM517,468.63a5.51,5.51,0,0,1-3.77,5.2c-15.5,5.3-47.74,14.18-89.4,14.18a288,288,0,0,1-90.37-14.49,5.43,5.43,0,0,1-3.7-5.19V413.63c16.93,6.32,45.63,10.52,78.06,11.55l.76,0c2.08.06,4.18.11,6.29.14l1.08,0q3.7.05,7.45.05t7.44-.05l1,0q3.19-.05,6.34-.14l.64,0c32.49-1,61.24-5.23,78.16-11.56Zm-93.61-77.36c48.85,0,79.93,7,90.61,12.15-6.89,3.31-22.32,7.41-45.53,9.88-6,.64-12.59,1.17-19.64,1.56l-1.81.1-3.4.16-3.74.14-2.62.09-4.79.11-2,0q-3.49.05-7,.05t-7-.05l-2.11,0-4.69-.11-2.77-.09-3.51-.13-3.66-.17-1.36-.07c-7.17-.39-13.84-.93-19.95-1.58-23.23-2.47-38.67-6.57-45.55-9.88C343.48,398.29,374.59,391.27,423.44,391.27Zm100.9,7.21c-10.54-9.79-51.71-17.09-100.9-17.09-57.2,0-103.54,9.86-103.54,22v64.89a15.34,15.34,0,0,0,10.49,14.57c86.27,28.45,159.69,9.3,186.1.29A15.39,15.39,0,0,0,527,468.63v-65.2c0-1.7-.9-3.35-2.61-4.94"/><path class="j" d="M400.91,455.14h6.48v-6.45h-6.48v6.45"/><path class="j" d="M430.44,448.69H424v6.45h6.49v-6.45"/><path class="j" d="M412.43,455.14h6.49v-6.45h-6.49v6.45"/><path class="j" d="M400.91,467h6.48v-6.45h-6.48V467"/><path class="j" d="M412.43,467h6.49v-6.45h-6.49V467"/><g class="k"><path class="j" d="M432,475.67a7.59,7.59,0,1,1,7.64-7.59A7.62,7.62,0,0,1,432,475.67Zm-36-2.72V444.79h39.35v13.75a10.16,10.16,0,0,0-13.55,9.54,10,10,0,0,0,1.44,5.16H396.3A.3.3,0,0,1,396,472.95Zm30-39.71v1.23a1.91,1.91,0,0,0,3.81,0v-1.23a3,3,0,1,1-3.81,0Zm-12.2.05v1.18a1.91,1.91,0,0,0,3.81,0v-1.27a3,3,0,0,1,1.17,2.36,3,3,0,0,1-6,0A3,3,0,0,1,413.77,433.29Zm-12.2-.05v1.23a1.91,1.91,0,0,0,3.81,0v-1.23a3,3,0,1,1-3.81,0Zm36.32,26.62V432.18a2.83,2.83,0,0,0-2.84-2.82h-5.27v-3.27a1.91,1.91,0,0,0-3.81,0v3.27h-8.39v-3.27a1.91,1.91,0,0,0-3.81,0v3.27h-8.38v-3.27a1.91,1.91,0,0,0-3.81,0v3.27H396.3a2.84,2.84,0,0,0-2.84,2.82v40.77a2.84,2.84,0,0,0,2.84,2.82h29.08a10.13,10.13,0,1,0,12.52-15.91"/></g><path class="j" d="M436.71,469.81l-4.09-2.12v-4a.64.64,0,0,0-1.27,0v4.43a.63.63,0,0,0,.34.56l4.44,2.3a.6.6,0,0,0,.29.07.63.63,0,0,0,.29-1.19"/><g class="l"><path class="d" d="M616.19,405.23q0,5.18-.25,10.36t-.76,10.33q-.51,5.16-1.27,10.28t-1.77,10.21q-1,5.08-2.27,10.11t-2.76,10q-1.51,5-3.25,9.84T600.13,486q-2,4.79-4.2,9.47t-4.66,9.25q-2.44,4.57-5.11,9t-5.54,8.75q-2.88,4.31-6,8.47t-6.37,8.16q-3.29,4-6.77,7.84t-7.14,7.5q-3.67,3.66-7.5,7.14T539,568.37q-4,3.28-8.16,6.37t-8.47,6q-4.31,2.88-8.75,5.54t-9,5.11q-4.57,2.44-9.25,4.66t-9.47,4.2q-4.79,2-9.66,3.73t-9.84,3.25q-5,1.51-10,2.76t-10.11,2.27q-5.09,1-10.21,1.77t-10.28,1.27q-5.16.51-10.33.76t-10.36.25q-5.18,0-10.36-.25t-10.33-.76q-5.16-.51-10.28-1.27T364,612.21q-5.08-1-10.11-2.27t-10-2.76q-5-1.51-9.84-3.25t-9.66-3.73q-4.79-2-9.47-4.2t-9.25-4.66q-4.57-2.44-9-5.11t-8.75-5.54q-4.31-2.88-8.47-6t-8.17-6.37q-4-3.29-7.84-6.77t-7.5-7.14q-3.66-3.66-7.14-7.5T242,539.11q-3.29-4-6.37-8.16t-6-8.47q-2.88-4.31-5.54-8.75t-5.11-9q-2.44-4.57-4.66-9.25t-4.2-9.47q-2-4.79-3.73-9.66t-3.25-9.84q-1.51-5-2.76-10t-2.27-10.11q-1-5.08-1.77-10.21t-1.27-10.28q-.51-5.16-.76-10.33t-.26-10.36q0-5.19.26-10.36t.76-10.33q.5-5.16,1.27-10.28t1.77-10.21q1-5.08,2.27-10.11t2.76-10q1.51-5,3.25-9.84t3.73-9.66q2-4.79,4.2-9.47t4.66-9.25q2.44-4.57,5.11-9t5.54-8.75q2.88-4.31,6-8.47t6.37-8.16q3.29-4,6.77-7.84t7.14-7.5q3.66-3.66,7.5-7.14t7.84-6.77q4-3.28,8.17-6.37t8.47-6q4.31-2.88,8.75-5.54t9-5.11q4.57-2.44,9.25-4.66t9.47-4.2q4.79-2,9.66-3.73t9.84-3.25q5-1.51,10-2.76T364,198.23q5.08-1,10.21-1.77t10.28-1.27q5.16-.51,10.33-.76t10.36-.25q5.18,0,10.36.25t10.33.76q5.16.51,10.28,1.27t10.21,1.77q5.08,1,10.11,2.27t10,2.76q5,1.51,9.84,3.25t9.66,3.73q4.79,2,9.47,4.2t9.25,4.66q4.57,2.44,9,5.11t8.75,5.54q4.31,2.88,8.47,6t8.16,6.37q4,3.29,7.84,6.77t7.5,7.14q3.66,3.66,7.14,7.5t6.77,7.84q3.29,4,6.38,8.16t6,8.47q2.88,4.31,5.54,8.75t5.11,9q2.44,4.57,4.66,9.25t4.2,9.47q2,4.79,3.73,9.66t3.25,9.84q1.5,5,2.76,10t2.27,10.11q1,5.08,1.77,10.21t1.27,10.28q.51,5.16.76,10.33T616.19,405.23Z"/></g><path class="e" d="M587.25,300.27c3.58,19.5,2.42,41.71-3.65,65.71a247.84,247.84,0,0,1-20.53,53.12L607.23,464a209.57,209.57,0,0,0,4.8-20.62q1.89-10.43,2.72-21a211.62,211.62,0,0,0-27.5-122.12Z"/><path class="e" d="M421.42,561.13,466.57,607a209.12,209.12,0,0,0,82.2-47.63l-52.18-53a336.38,336.38,0,0,1-75.18,54.75Z"/><path class="e" d="M404.67,412.93,339,477.43l74.73,76A325.53,325.53,0,0,0,489.21,499Z"/><path class="e" d="M551.21,254.29c-33.59-29.81-91.11-27.79-149.67.58l73.23,74.44,76.36-75.12Z"/><path class="e" d="M558.47,261.65l-76.36,75.13,73.31,74.52C584.75,353.23,587.8,295.75,558.47,261.65Z"/><path class="e" d="M504,499.14l52.18,53a208.93,208.93,0,0,0,47.45-77.1l-45.79-46.55A337.33,337.33,0,0,1,504,499.14Z"/><path class="e" d="M320.14,312.25l84.67,86.08,62.71-61.66L391.9,259.79a326.54,326.54,0,0,0-71.76,52.57Z"/><path class="e" d="M496.7,491.78a326.41,326.41,0,0,0,53.65-71L474.78,344,412.06,405.7Z"/><path class="e" d="M312.88,304.89a337.67,337.67,0,0,1,71.47-52.78l-45.79-46.53a209.14,209.14,0,0,0-77.89,46.24Z"/><path class="e" d="M253.32,259.08a209.24,209.24,0,0,0-49,81.48l45.16,45.92a337.08,337.08,0,0,1,56-74.26Z"/><path class="e" d="M312.78,319.48a325.45,325.45,0,0,0-55.64,74.63l74.73,76,65.71-64.5Z"/><path class="e" d="M251,549.61l73.6-72.29-72.31-73.6C224.59,460.55,222.43,516.25,251,549.61Z"/><g class="m"><path class="e" d="M222.23,511c-3.58-19.48-2.42-41.69,3.65-65.71A243.6,243.6,0,0,1,244.52,396L201,351.81q-2.62,10-4.26,20.14T194.5,392.4q-.64,10.28-.28,20.58t1.72,20.51q1.36,10.21,3.7,20.25t5.66,19.79q3.31,9.76,7.55,19.15T222.23,511Z"/></g><path class="e" d="M404,558.21l-72.34-73.6-73.6,72.29C291.12,586.15,346.84,584.83,404,558.21Z"/><g class="n"><path class="e" d="M296.35,586.36q8.84,5.28,18.16,9.68t19,7.87q9.7,3.47,19.7,6t20.18,4q10.19,1.53,20.48,2.06t20.58.06q10.29-.47,20.49-1.94t20.21-3.93l-43.48-44.29a244.5,244.5,0,0,1-49.63,17.79C338.09,589.54,315.8,590.27,296.35,586.36Z"/></g><g class="o"><path class="e" d="M514.2,224.64c-19.43-4-41.64-3.39-65.71,2.13a248,248,0,0,0-53.6,19.29L351,200.88a211.41,211.41,0,0,1,84-4.68q10.49,1.53,20.77,4.09T476,206.44q10,3.59,19.54,8.14T514.2,224.64Z"/></g><g class="p"><path class="q" d="M504.73,313.64c.48,2-.8,4.16-3.18,5.44-16.45,8.77-51.08,25.22-98.21,36.79a440.93,440.93,0,0,1-105.24,12.87c-2.66,0-4.77-1.35-5.26-3.35l-3.14-12.8c20.46.63,53.79-3.79,90.7-11.93l.87-.19q3.54-.79,7.14-1.62l1.23-.28q4.2-1,8.44-2t8.41-2.11l1.17-.31q3.59-.93,7.14-1.88l.71-.2c36.55-9.89,68.21-21.42,86-31.46ZM391,307.7c55.26-13.56,91.89-16.28,105-14.91-7.11,4.7-23.72,12.45-49.46,21q-10,3.32-21.9,6.77l-2,.59-3.81,1.07-4.2,1.16-2.95.8-5.4,1.42-2.29.6q-3.94,1-8,2t-8,1.91l-2.39.55-5.33,1.21-3.15.7-4,.86-4.18.88-1.56.32c-8.19,1.66-15.84,3.05-22.89,4.2-26.8,4.37-45.11,5.19-53.58,4.31C302,335.83,335.73,321.27,391,307.7Zm115.65-21.94c-13.95-5.34-62-.06-117.7,13.6-64.71,15.88-115.1,37.07-112.58,47.34l5.25,21.41c1.36,5.57,7.36,9.38,14.89,9.38,103.48.05,182.59-36.5,210.6-51.44,6.63-3.54,10.2-9.62,8.83-15.18l-5.31-21.68C510.27,287.78,508.91,286.63,506.64,285.77Zm9.58,193.72a6.45,6.45,0,0,1-4.39,6.08c-18.07,6.19-55.62,16.57-104.15,16.57a334.43,334.43,0,0,1-105.27-16.95,6.34,6.34,0,0,1-4.31-6.07V415.2c19.72,7.39,53.15,12.3,90.93,13.5l.89,0q3.63.11,7.32.17l1.26,0q4.31.06,8.67.07t8.67-.07l1.2,0q3.71-.06,7.38-.17l.74,0c37.85-1.2,71.34-6.12,91.05-13.51Zm-109-90.43c56.9,0,93.12,8.2,105.55,14.2-8,3.87-26,8.66-53,11.55-7,.75-14.66,1.38-22.88,1.83l-2.11.11-4,.18-4.36.17-3.05.1c-1.85.05-3.71.09-5.59.13l-2.37,0q-4.07.06-8.2.06t-8.2-.06l-2.45,0c-1.83,0-3.66-.07-5.46-.13l-3.23-.1-4.09-.16c-1.44-.06-2.87-.12-4.27-.2l-1.59-.09c-8.35-.45-16.11-1.09-23.23-1.85-27.07-2.89-45-7.68-53.07-11.55C314,397.26,350.28,389.06,407.18,389.06Zm117.54,8.43c-12.27-11.45-60.24-20-117.54-20-66.62,0-120.61,11.52-120.61,25.75v75.86a17.93,17.93,0,0,0,12.22,17c100.49,33.26,186,10.87,216.79.33a18,18,0,0,0,12.19-17V403.26c0-2-1.05-3.92-3-5.78"/></g><path class="d" d="M391.71,304.64c-58.62,14.84-104.79,32.25-103.11,38.88s50.56,0,109.19-14.88,104.79-32.25,103.11-38.87-50.56,0-109.19,14.88"/><path class="d" d="M405.16,389.25c-60.48,0-109.5,6.21-109.5,13.88s49,13.88,109.5,13.88,109.5-6.21,109.5-13.87-49-13.87-109.5-13.87"/><path class="q" d="M294,424.19H520.52v68.25H294V424.19"/><path class="q" d="M329.79,480.82H485v23.25H329.79V480.82"/><path class="q" d="M294,417.29h71.24v23.25H294V417.29"/><path class="q" d="M449.18,417.29h71.24v23.25H449.18V417.29"/><path class="q" d="M294,412.68h17.25v15H294v-15"/><path class="q" d="M356.79,421.61H374v15H356.79v-15"/><path class="q" d="M436.53,425.94h17.25v15H436.53v-15"/><path class="q" d="M505.61,414.13h17.25v15H505.61v-15"/><path class="q" d="M321,480.82h17.25v15H321v-15"/><path class="q" d="M476.18,480.82h17.25v15H476.18v-15"/><path class="q" d="M285.94,355.88l209.17-47.14,4.62,20.49L290.55,376.36l-4.62-20.48"/><path class="q" d="M316.79,360.85,466,327.22l3.46,15.36L320.25,376.21l-3.46-15.36"/><path class="q" d="M285.91,349.59l120.3-10.2,1.08,12.71L287,362.29l-1.08-12.71"/><path class="q" d="M416.21,331.32l90.35-34.62,7.51,19.61-90.34,34.62-7.52-19.61"/><g class="r"><path class="j" d="M404.86,773.11c-203.05,0-368.25-165.2-368.25-368.25S201.8,36.61,404.86,36.61,773.11,201.8,773.11,404.86,607.91,773.11,404.86,773.11Zm0-730C205.4,43.13,43.13,205.4,43.13,404.86S205.4,766.57,404.86,766.57,766.57,604.31,766.57,404.86,604.31,43.13,404.86,43.13Z"/></g></svg>