<svg xmlns="http://www.w3.org/2000/svg" xmlns:xlink="http://www.w3.org/1999/xlink" viewBox="0 0 810 810"><defs><style>.a{fill:none;}.b{fill:#7b7777;}.c{clip-path:url(#a);}.d{fill:#babbbc;}.e{clip-path:url(#b);}.f{fill:#7e7e7e;}.g{clip-path:url(#c);}.h{clip-path:url(#d);}.i{clip-path:url(#e);}.j{clip-path:url(#f);}.k{fill:#7b7b7c;}.l{clip-path:url(#g);}.m{fill:#fff;}.n{clip-path:url(#h);}.o{clip-path:url(#i);}</style><clipPath id="a"><rect class="a" x="197.71" y="194.02" width="422.25" height="422.25"/></clipPath><clipPath id="b"><rect class="a" x="566" y="300" width="53.96" height="164"/></clipPath><clipPath id="c"><rect class="a" x="197.71" y="351" width="51.29" height="160"/></clipPath><clipPath id="d"><rect class="a" x="300" y="565" width="159" height="51.27"/></clipPath><clipPath id="e"><rect class="a" x="354" y="194.02" width="164" height="52.98"/></clipPath><clipPath id="f"><rect class="a" x="36.61" y="36.61" width="736.5" height="736.5"/></clipPath><clipPath id="g"><rect class="a" x="536" y="342" width="32.95" height="33"/></clipPath><clipPath id="h"><rect class="a" x="248.7" y="256.55" width="288.3" height="288.45"/></clipPath><clipPath id="i"><rect class="a" x="347" y="534" width="44" height="31.55"/></clipPath></defs><title>formula2-01</title><path class="b" d="M626.24,234.17a14.7,14.7,0,0,0,15.48-3.33c6.77-6.22,6.86-16.91.29-24.06l-8.74-9.51a3.93,3.93,0,0,0-5.57-.23l-28.59,26.28a3.92,3.92,0,0,0-.23,5.57,4,4,0,0,0,5.62.29l7.52-6.92,5.24,5.7c.59.64,1.29,1.29,1.93,1.89l-3.24,15.57c-.52,2.56,1.42,4.35,3.57,4.75,1.95.39,3.71-.93,4.24-3.8Zm4.38-29,6.13,6.66a9.08,9.08,0,0,1-.4,13.16c-3.71,3.41-9.07,3.08-12.87-1.06l-6.08-6.61Z"/><path class="b" d="M670.81,249.76c1.63-2.42,1.8-3.86.5-5.79s-3.45-2.25-5.66-1.73l-39.82,7.92c-2.91.64-4.39,3.4-2.64,6a3.78,3.78,0,0,0,4,1.68l7-1.58,11.84,17.55-4.1,5.93a3.63,3.63,0,0,0,0,4.37,3.85,3.85,0,0,0,6.58-.3Zm-8.48.35-11.82,17.21-8.57-12.71Z"/><path class="b" d="M703.8,304.61a3.93,3.93,0,0,0-5.19-2l-26,11.91,17.7-35.88a4.17,4.17,0,0,0-.88-4.73,3.91,3.91,0,0,0-4.39-.64l-35.25,16.13a3.92,3.92,0,0,0-1.95,5.22,4,4,0,0,0,5.26,2l26.29-12-17.84,36.27a3.44,3.44,0,0,0,.66,4.43,4,4,0,0,0,4.35.74l35.38-16.19A3.82,3.82,0,0,0,703.8,304.61Z"/><path class="b" d="M710,321.79a3.7,3.7,0,1,0-7.09,2l3,10.54L671.83,344a3.92,3.92,0,0,0-2.72,4.87,4,4,0,0,0,4.88,2.79L708.06,342l3,10.47a3.89,3.89,0,0,0,4.46,2.91,3.93,3.93,0,0,0,2.63-4.92Z"/><path class="b" d="M678.81,399.71a3.87,3.87,0,0,0,4.38,3.37A3.91,3.91,0,0,0,686,398.7l-3-21.33,12.43-1.74,2.34,16.7a3.77,3.77,0,0,0,4.29,3.23,3.63,3.63,0,0,0,3-4.25l-2.34-16.7,12.07-1.69,3,21.33c.3,2.17,2.21,3.67,3.87,3.44a3.93,3.93,0,0,0,3.36-4.45l-3.55-25.3a3.88,3.88,0,0,0-4.45-3.36L678.62,370a3.88,3.88,0,0,0-3.39,4.23Z"/><path class="b" d="M679.44,438.23a3.86,3.86,0,0,0,3.86,3.95,3.92,3.92,0,0,0,3.44-3.94l0-21.54,12.55,0,0,16.86a3.77,3.77,0,0,0,3.79,3.8,3.64,3.64,0,0,0,3.58-3.79l0-16.86h12.19l0,21.54c0,2.19,1.68,3.95,3.35,3.95a3.93,3.93,0,0,0,3.95-3.94l0-25.55a3.88,3.88,0,0,0-3.94-3.95l-38.83,0a3.88,3.88,0,0,0-3.95,3.72Z"/><path class="b" d="M593.4,588.33a3.7,3.7,0,1,0,5.58,4.82l7.16-8.29L632.94,608a3.92,3.92,0,0,0,5.56-.41,4,4,0,0,0-.36-5.61l-26.8-23.14,7.11-8.23a3.88,3.88,0,0,0,0-5.33,3.93,3.93,0,0,0-5.55.51Z"/><g class="c"><path class="d" d="M619.88,405.22q0,5.19-.25,10.36t-.76,10.33q-.51,5.16-1.27,10.28t-1.77,10.21q-1,5.08-2.27,10.11t-2.76,10q-1.51,5-3.25,9.84T603.81,486q-2,4.79-4.2,9.47T595,504.71q-2.44,4.57-5.11,9t-5.54,8.75q-2.88,4.31-6,8.47T572,539.11q-3.29,4-6.77,7.84t-7.14,7.5q-3.67,3.66-7.5,7.14t-7.84,6.77q-4,3.28-8.17,6.37t-8.47,6q-4.31,2.88-8.75,5.54t-9,5.11q-4.57,2.44-9.25,4.66t-9.47,4.2q-4.79,2-9.66,3.73t-9.84,3.25q-5,1.51-10,2.76T450,612.21q-5.08,1-10.2,1.77t-10.28,1.27q-5.16.51-10.33.76t-10.36.25q-5.18,0-10.36-.25t-10.33-.76q-5.15-.51-10.28-1.27t-10.21-1.77q-5.08-1-10.11-2.27t-10-2.76q-5-1.51-9.84-3.25t-9.66-3.73q-4.79-2-9.47-4.2t-9.25-4.66q-4.57-2.44-9-5.11t-8.75-5.54q-4.31-2.88-8.47-6t-8.17-6.37q-4-3.29-7.84-6.77t-7.5-7.14q-3.67-3.66-7.14-7.5t-6.77-7.84q-3.29-4-6.37-8.16t-6-8.47q-2.88-4.31-5.54-8.75t-5.11-9q-2.44-4.57-4.66-9.25t-4.2-9.47q-2-4.79-3.73-9.66t-3.25-9.84q-1.51-5-2.77-10t-2.27-10.11q-1-5.08-1.77-10.21t-1.27-10.28q-.5-5.16-.76-10.33t-.25-10.36q0-5.18.25-10.36t.76-10.33q.51-5.16,1.27-10.28t1.77-10.21q1-5.08,2.27-10.11t2.77-10q1.5-5,3.25-9.84t3.73-9.66q2-4.79,4.2-9.47t4.66-9.25q2.44-4.57,5.11-9t5.54-8.75q2.88-4.31,6-8.47t6.37-8.16q3.29-4,6.77-7.84t7.14-7.5q3.66-3.66,7.5-7.14t7.84-6.77q4-3.29,8.17-6.37t8.47-6q4.31-2.88,8.75-5.54t9-5.11q4.56-2.44,9.25-4.66t9.47-4.2q4.78-2,9.66-3.73t9.84-3.25q5-1.51,10-2.76t10.11-2.27q5.08-1,10.21-1.77t10.28-1.27q5.16-.51,10.33-.76t10.36-.25q5.18,0,10.36.25t10.33.76q5.16.51,10.28,1.27t10.2,1.77q5.09,1,10.11,2.27t10,2.76q5,1.51,9.84,3.25t9.66,3.73q4.79,2,9.47,4.2t9.25,4.66q4.56,2.44,9,5.11t8.75,5.54q4.31,2.88,8.47,6t8.17,6.37q4,3.29,7.84,6.77t7.5,7.14q3.66,3.66,7.14,7.5t6.77,7.84q3.29,4,6.38,8.16t6,8.47q2.88,4.31,5.54,8.75t5.11,9q2.44,4.57,4.66,9.25t4.2,9.47q2,4.79,3.73,9.66t3.25,9.84q1.5,5,2.76,10t2.27,10.11q1,5.08,1.77,10.21t1.27,10.28q.5,5.16.76,10.33T619.88,405.22Z"/></g><g class="e"><path class="f" d="M590.94,300.27c3.57,19.5,2.42,41.71-3.65,65.71a247.65,247.65,0,0,1-20.53,53.12L610.91,464q2.92-10.19,4.8-20.62a211.7,211.7,0,0,0,1.82-63.27q-1.28-10.52-3.61-20.86a211.62,211.62,0,0,0-23-59Z"/></g><path class="f" d="M425.1,561.13,470.26,607a209.12,209.12,0,0,0,82.2-47.63l-52.18-53a336.29,336.29,0,0,1-75.18,54.75Z"/><path class="f" d="M408.36,412.93l-65.71,64.5,74.73,76A325.53,325.53,0,0,0,492.89,499Z"/><path class="f" d="M554.9,254.29c-33.59-29.81-91.11-27.79-149.67.58l73.23,74.44,76.36-75.12Z"/><path class="f" d="M562.16,261.65,485.8,336.78l73.31,74.52C588.44,353.23,591.49,295.75,562.16,261.65Z"/><path class="f" d="M507.64,499.14l52.18,53a208.93,208.93,0,0,0,47.45-77.1l-45.79-46.55A337.2,337.2,0,0,1,507.64,499.14Z"/><path class="f" d="M323.82,312.25l84.67,86.08,62.71-61.66-75.62-76.89a326.54,326.54,0,0,0-71.76,52.57Z"/><path class="f" d="M500.39,491.78a326.41,326.41,0,0,0,53.65-71L478.46,344,415.75,405.7Z"/><path class="f" d="M316.57,304.89A337.75,337.75,0,0,1,388,252.11l-45.79-46.53a209.16,209.16,0,0,0-77.88,46.24Z"/><path class="f" d="M257,259.08a209.06,209.06,0,0,0-49,81.48l45.16,45.92a337.08,337.08,0,0,1,56-74.26Z"/><path class="f" d="M316.46,319.48a325.45,325.45,0,0,0-55.64,74.63l74.73,76,65.71-64.5Z"/><path class="f" d="M254.7,549.61l73.6-72.29L256,403.73C228.28,460.55,226.12,516.25,254.7,549.61Z"/><g class="g"><path class="f" d="M225.91,511c-3.57-19.48-2.42-41.69,3.66-65.71A243.6,243.6,0,0,1,248.2,396l-43.48-44.16q-2.62,10-4.26,20.14t-2.28,20.45q-.64,10.28-.28,20.58t1.72,20.51q1.36,10.21,3.7,20.25T209,473.53q3.3,9.76,7.55,19.15T225.91,511Z"/></g><path class="f" d="M407.73,558.21l-72.34-73.6-73.6,72.29C294.8,586.15,350.53,584.83,407.73,558.21Z"/><g class="h"><path class="f" d="M300,586.36q8.85,5.28,18.17,9.68t19,7.87q9.7,3.47,19.69,6t20.18,4q10.19,1.53,20.48,2.06t20.58.06q10.29-.47,20.49-1.94t20.21-3.93l-43.48-44.29a244.5,244.5,0,0,1-49.63,17.79C341.78,589.54,319.49,590.27,300,586.36Z"/></g><g class="i"><path class="f" d="M517.89,224.64c-19.43-4-41.64-3.39-65.71,2.13a248,248,0,0,0-53.59,19.29l-43.93-45.18a211.71,211.71,0,0,1,63-6.68q10.59.47,21.08,2a210.93,210.93,0,0,1,20.77,4.09q10.28,2.57,20.26,6.15t19.54,8.14Q508.82,219.15,517.89,224.64Z"/></g><path class="d" d="M512.09,362.36,462,332.15,410.8,360.39l-1.1,58.46,50.09,30.21L511,420.82l1.1-58.46"/><path class="b" d="M114.32,412.48a14.69,14.69,0,0,0-13.63-8.06c-9.2,0-16.52,7.77-16.54,17.48l0,12.92a3.93,3.93,0,0,0,3.93,4l38.83.1a3.93,3.93,0,0,0,4-3.93,4,4,0,0,0-3.93-4l-10.22,0,0-7.74c0-.87-.07-1.82-.14-2.7l12.95-9.24c2.12-1.53,1.91-4.16.6-5.91-1.16-1.61-3.35-1.83-5.69-.09ZM91.43,430.82l0-9.05a9.08,9.08,0,0,1,9.22-9.39c5,0,8.75,3.89,8.73,9.51l0,9Z"/><path class="b" d="M132.48,393.79a4,4,0,0,0-3.48-4.42l-38.68-4.21A3.92,3.92,0,0,0,86,388.74a3.86,3.86,0,0,0,3.42,4.34l38.68,4.21A3.93,3.93,0,0,0,132.48,393.79Z"/><path class="b" d="M138.79,360.47c1.41-6.2.71-11.37-2.32-17.45a4.39,4.39,0,0,0-3.36-2.71l-10.68-2.43a4,4,0,0,0-4.68,3.13l-2.36,10.39A3.56,3.56,0,1,0,122.3,353l1.6-7,6.41,1.45c2,3.22,2.1,7.21,1.2,11.2-2,8.61-10.77,13.5-19.39,11.54-9.54-2.17-14.57-10.65-12.7-18.91a17.35,17.35,0,0,1,7-9.94c1.58-1.36,2.38-3.88,1-5.53a4,4,0,0,0-5.53-.36c-5.43,3.79-8.43,8.12-9.82,14.24-2.93,12.89,5.68,25.39,18.29,28.26C123.17,380.8,136,372.71,138.79,360.47Z"/><path class="b" d="M114.18,286.66a3.93,3.93,0,0,0,2,5.19l14.78,6.1-8.74,21.19L107.49,313a3.93,3.93,0,0,0-5.11,2.23,3.87,3.87,0,0,0,2.07,5.12l36.1,14.89a3.93,3.93,0,0,0,5.15-2.14,4,4,0,0,0-2.11-5.21l-14.57-6,8.74-21.19,14.58,6a3.94,3.94,0,1,0,3-7.29l-36.1-14.89A3.8,3.8,0,0,0,114.18,286.66Z"/><path class="b" d="M122.51,270.56a3.7,3.7,0,1,0,6.32,3.8l5.65-9.38,30.32,18.27a3.92,3.92,0,0,0,5.41-1.34,4,4,0,0,0-1.3-5.47l-30.32-18.27,5.61-9.32a3.88,3.88,0,0,0-.93-5.25,3.93,3.93,0,0,0-5.39,1.44Z"/><path class="b" d="M195.38,246.47a3.94,3.94,0,0,0-.22-5.62l-10.55-9.56L195,219.77a3.74,3.74,0,0,0-.26-5.26,3.67,3.67,0,0,0-5.15.36L179.2,226.39,168.87,217l13.77-15.2a3.79,3.79,0,0,0,.11-5.12,3.86,3.86,0,0,0-5.52.22l-16.47,18.18a3.67,3.67,0,0,0,.22,5.52l28.83,26.13A3.92,3.92,0,0,0,195.38,246.47Z"/><path class="b" d="M234.12,209.87c10.26-8.21,12.22-23.52,4-33.84a24.16,24.16,0,0,0-37.73,30.2A24.08,24.08,0,0,0,234.12,209.87Zm-4.7-5.87c-7.18,5.75-17,4.55-22.86-2.74s-4.94-17.27,2.24-23S226,173.55,231.93,181A16.08,16.08,0,0,1,229.42,204Z"/><path class="b" d="M272.92,164.19a14.68,14.68,0,0,0,.39-15.83c-4.46-8-14.84-10.63-23.32-5.92l-11.3,6.27a3.93,3.93,0,0,0-1.53,5.36L256,188a3.92,3.92,0,0,0,5.36,1.54,4,4,0,0,0,1.6-5.39l-5-8.94,6.77-3.75c.77-.43,1.56-.95,2.29-1.44l14.38,6.8c2.37,1.11,4.56-.36,5.45-2.36.84-1.8,0-3.82-2.7-5Zm-27.17-11,7.91-4.39a9.07,9.07,0,0,1,12.7,3.47c2.45,4.4.87,9.54-4,12.27l-7.85,4.36Z"/><path class="b" d="M296.87,170.76a4,4,0,0,0,2.49-5l-9.54-27.21,16.25,9.93a3.39,3.39,0,0,0,4.89-1.71l6.49-17.9L327,156a4,4,0,0,0,5,2.42,3.92,3.92,0,0,0,2.41-5l-12.87-36.72a3.86,3.86,0,0,0-5-2.35,4.53,4.53,0,0,0-2.32,2l-8.56,23-21.18-12.54a3.92,3.92,0,0,0-3.16-.2,3.82,3.82,0,0,0-2.35,5l12.87,36.71A3.93,3.93,0,0,0,296.87,170.76Z"/><path class="b" d="M370.53,103.91a3.92,3.92,0,0,0-3.35,4.45l3.63,22.78c1.12,7-3.38,13.55-9.87,14.59-6.85,1.09-13.08-3.68-14.21-10.74l-3.61-22.64a3.94,3.94,0,1,0-7.79,1.25l3.55,22.27C340.68,147,351,155,362.14,153.23c10.52-1.68,18.26-12.52,16.47-23.7L375,107.11A3.86,3.86,0,0,0,370.53,103.91Z"/><path class="b" d="M396.65,141.94l-.37-35.48a3.94,3.94,0,0,0-4.06-3.9,3.88,3.88,0,0,0-3.9,4l.4,38.84c0,2.48,1.36,3.93,4,3.9l24.23-.25a3.88,3.88,0,0,0,3.9-4c0-1.53-1.79-3.34-4-3.32Z"/><path class="b" d="M451.05,109.4c-.73-2.82-1.7-3.91-4-4.21s-4,1.1-5,3.09l-20.45,35.08c-1.45,2.61-.36,5.55,2.75,6a3.77,3.77,0,0,0,3.93-1.91l3.48-6.31,21,2.76,1.73,7a3.64,3.64,0,0,0,3.3,2.86,3.86,3.86,0,0,0,4.13-5.12ZM445.69,116l5.06,20.25-15.2-2Z"/><path class="b" d="M502,167.42c6,2.19,11.18,2.17,17.6-.06a4.4,4.4,0,0,0,3.12-3l3.78-10.28a4,4,0,0,0-2.5-5l-10-3.68a3.56,3.56,0,1,0-2.45,6.65l6.78,2.49L516,160.7c-3.45,1.53-7.43,1.16-11.27-.25-8.29-3.05-12-12.43-8.95-20.71,3.38-9.18,12.43-13.08,20.38-10.16a17.36,17.36,0,0,1,9,8.2c1.15,1.74,3.54,2.86,5.35,1.73a4,4,0,0,0,1.07-5.44c-3.05-5.87-7-9.41-12.85-11.57-12.4-4.56-25.92,2.37-30.38,14.5C483.81,149.32,490.17,163.09,502,167.42Z"/><path class="b" d="M578.2,152.6a3.93,3.93,0,0,0-5.4,1.38l-11.43,20c-3.51,6.15-11.12,8.45-16.83,5.2-6-3.44-7.9-11.06-4.36-17.27L551.55,142a3.94,3.94,0,1,0-6.85-3.91l-11.17,19.59c-5.6,9.83-2.57,22.48,7.26,28.09,9.26,5.28,22.08,1.66,27.68-8.17l11.25-19.72A3.87,3.87,0,0,0,578.2,152.6Z"/><path class="b" d="M607.56,179c.84-2.79.58-4.22-1.24-5.68s-4-1.12-5.91,0l-35.7,19.35c-2.59,1.47-3.2,4.55-.75,6.52a3.77,3.77,0,0,0,4.35.41l6.26-3.59,16.5,13.27-2.16,6.88a3.64,3.64,0,0,0,1.33,4.16,3.86,3.86,0,0,0,6.2-2.23Zm-8,2.84-6.2,19.93-11.95-9.61Z"/><path class="b" d="M177.21,614.45c8.86,9.7,24.27,10.65,34,1.74a24.16,24.16,0,0,0-32.6-35.67A24.08,24.08,0,0,0,177.21,614.45Zm5.55-5.07c-6.2-6.79-5.66-16.69,1.24-23s16.91-6.06,23.11.73,5.8,16.85-1.2,23.25A16.07,16.07,0,0,1,182.75,609.38Z"/><path class="b" d="M234,642.42a14.68,14.68,0,0,0,14.73-5.82c5.66-7.25,4-17.81-3.67-23.79l-10.19-7.95a3.93,3.93,0,0,0-5.54.69l-23.88,30.63a3.92,3.92,0,0,0,.68,5.53,4,4,0,0,0,5.59-.64L218,633l6.1,4.76c.69.54,1.48,1.07,2.22,1.55l-.63,15.89c-.09,2.61,2.11,4.05,4.3,4.09,2,.07,3.5-1.52,3.56-4.45Zm-.46-29.33,7.14,5.57a9.08,9.08,0,0,1,1.77,13c-3.1,4-8.44,4.53-12.87,1.07l-7.08-5.52Z"/><path class="b" d="M257.81,677.47c5.55,3.07,10.72,3.85,17.4,2.63a4.4,4.4,0,0,0,3.54-2.46l5.3-9.58a4,4,0,0,0-1.7-5.36L273,657.52a3.55,3.55,0,1,0-3.43,6.19l6.32,3.5L272.74,673c-3.63,1-7.52,0-11.09-2-7.73-4.28-10-14.11-5.68-21.84,4.74-8.56,14.29-11,21.7-6.93a17.36,17.36,0,0,1,7.61,9.47c.87,1.9,3.06,3.36,5,2.53a4,4,0,0,0,1.89-5.21c-2.12-6.27-5.45-10.36-10.94-13.4-11.56-6.4-26-1.61-32.23,9.69C242.64,656.8,246.83,671.39,257.81,677.47Z"/><path class="b" d="M319.42,657c-.11-2.91-.82-4.18-3-5s-4.12.22-5.59,1.94L283.34,683.9c-2,2.24-1.54,5.34,1.41,6.41a3.78,3.78,0,0,0,4.25-1l4.75-5.43,19.91,7.19.19,7.21a3.64,3.64,0,0,0,2.61,3.51,3.86,3.86,0,0,0,5.14-4.12Zm-6.64,5.29.61,20.87L299,678Z"/><path class="b" d="M373.73,666.22a3.93,3.93,0,0,0-4.65,3.08l-5.19,28.14-19.21-35.09a4.18,4.18,0,0,0-4.38-2,3.9,3.9,0,0,0-3,3.22l-7,38.12a3.92,3.92,0,0,0,3.16,4.59,4,4,0,0,0,4.66-3.15l5.25-28.43,19.44,35.43a3.45,3.45,0,0,0,4,2,4,4,0,0,0,3.1-3.14l7.06-38.26A3.82,3.82,0,0,0,373.73,666.22Z"/><path class="b" d="M385.94,713.74a4,4,0,0,0,4.25-3.68l2.44-38.83a3.93,3.93,0,0,0-3.77-4.11,3.87,3.87,0,0,0-4.18,3.62l-2.44,38.83A3.93,3.93,0,0,0,385.94,713.74Z"/><path class="b" d="M424,714.44a23.15,23.15,0,0,0,16-7.19,4.13,4.13,0,0,0,.52-5.51c-1.32-1.61-3.94-1.33-5.62.07a16.86,16.86,0,0,1-11.29,5c-8.89.46-15.92-6.7-16.38-15.59-.5-9.7,6.29-16.85,14.82-17.29A16.65,16.65,0,0,1,433.69,678c1.81,1.15,4.45,1.23,5.6-.58A4,4,0,0,0,438.2,672a23.33,23.33,0,0,0-16.88-5.56c-13.34.7-22.65,12.8-22,25.27C400,704.8,411.2,715.11,424,714.44Z"/><path class="b" d="M449,682.28c2.23-.36,3.11-2.34,2.76-4.5l-1.6-10.09c-.34-2.16-1.77-3.71-4-3.36s-3.11,2.27-2.77,4.43l1.6,10.09C445.33,681,446.69,682.65,449,682.28Z"/><path class="b" d="M479.35,706c9.28-2.32,14.55-9.81,12.55-17.81-1.91-7.65-9.32-9.26-18.52-10.26-3.48-.41-7.84-1-8.83-4.94-.87-3.47,1.71-5.47,4.62-6.2,3.4-.85,6.53-.66,9.07,1a3.79,3.79,0,0,0,5.22-1.08,3.38,3.38,0,0,0-.29-4.14c-3.79-3.71-9.81-4.62-15.33-3.23-7.72,1.93-12.73,7.78-10.74,15.71s8.89,9.36,16.57,10.3c5.9.71,9.69,1.41,10.52,4.74,1.15,4.6-1.62,7.33-5.87,8.39-4.53,1.14-8.16.16-10.23-1.8a3.88,3.88,0,0,0-3.77-.94,3.62,3.62,0,0,0-1.43,6.3C466,705.26,471.91,707.84,479.35,706Z"/><path class="b" d="M538.76,656.56a10.78,10.78,0,0,0,.89-10.46A12.87,12.87,0,0,0,522.38,640l-15.07,7.23a3.86,3.86,0,0,0-1.88,5.19l16.86,35.15a3.86,3.86,0,0,0,5.23,1.79L543,681.9a14,14,0,0,0,6.84-18.66A11.94,11.94,0,0,0,538.76,656.56Zm-13.43-9.27A5.37,5.37,0,1,1,530,657l-11.06,5.3-4.64-9.68Zm2.29,33.14-5.3-11.06L534,663.8a6.38,6.38,0,0,1,8.64,2.66,6.46,6.46,0,0,1-3.27,8.37Z"/><path class="b" d="M589,654a3.86,3.86,0,0,0,1.12-5.41,3.91,3.91,0,0,0-5.18-.65l-17.88,12-7-10.42,14-9.4a3.77,3.77,0,0,0,1-5.27A3.63,3.63,0,0,0,570,634l-14,9.4-6.79-10.12,17.88-12c1.82-1.22,2.34-3.59,1.4-5a3.92,3.92,0,0,0-5.47-1.08l-21.21,14.24a3.88,3.88,0,0,0-1.08,5.47l21.65,32.24a3.88,3.88,0,0,0,5.29,1.2Z"/><path class="b" d="M609.83,637.53c7.14-6.36,8.35-15.44,2.87-21.6-5.24-5.89-12.55-3.89-21.17-.52-3.28,1.25-7.4,2.77-10.12-.28-2.37-2.68-1-5.64,1.22-7.63,2.62-2.33,5.48-3.61,8.52-3.28a3.79,3.79,0,0,0,4.13-3.38,3.38,3.38,0,0,0-2.17-3.54c-5.08-1.54-10.83.45-15.09,4.24-5.95,5.29-7.68,12.79-2.25,18.89s12.22,4.18,19.46,1.45c5.55-2.11,9.24-3.23,11.52-.67,3.15,3.55,2,7.25-1.32,10.16-3.49,3.11-7.16,3.93-9.91,3.14a3.89,3.89,0,0,0-3.77.92,3.62,3.62,0,0,0,1.65,6.25C597.67,643.07,604.1,642.62,609.83,637.53Z"/><path class="d" d="M405.82,362.21,355.73,332l-51.19,28.25-1.1,58.45,50.09,30.21,51.19-28.24,1.1-58.46"/><path class="d" d="M460.87,451.2,409.81,420.4l-52.25,28.91L356.36,509l51.06,30.79,52.25-28.91,1.2-59.71"/><g class="j"><path class="k" d="M404.86,773.11c-203.05,0-368.25-165.2-368.25-368.25S201.8,36.61,404.86,36.61,773.11,201.8,773.11,404.86,607.91,773.11,404.86,773.11Zm0-730C205.4,43.13,43.13,205.4,43.13,404.86S205.4,766.57,404.86,766.57,766.57,604.31,766.57,404.86,604.31,43.13,404.86,43.13Z"/></g><g class="l"><path class="m" d="M552.93,342a16,16,0,1,0,16,16A16,16,0,0,0,552.93,342Zm0,21.32a5.33,5.33,0,1,1,5.34-5.33A5.34,5.34,0,0,1,552.93,363.34Z"/></g><g class="n"><path class="m" d="M519.29,352.68a5,5,0,0,0-1.08-.82l-50.68-28.92V298.63a21.35,21.35,0,1,0-10.68,0v24.32l-48,27.41-48-27.41V298.63a21.35,21.35,0,1,0-10.68,0v24.32l-50.68,28.92a5.31,5.31,0,0,0-2.69,4.63v54.82h-17a16,16,0,1,0,0,10.66h19.61l.07.06L350.11,451v57.82a5.33,5.33,0,0,0,2.69,4.63l53.38,30.45a5.34,5.34,0,0,0,5.29,0l53.38-30.46a5.07,5.07,0,0,0,1.08-.82h17.63V501.92h-16V451L518.21,422a5.32,5.32,0,0,0,2.69-4.62V363.34h16V352.68Zm-67.77-74.62a10.68,10.68,0,1,1,10.68,10.66A10.68,10.68,0,0,1,451.52,278.06Zm-106.75,0a10.68,10.68,0,1,1,10.68,10.66A10.68,10.68,0,0,1,344.77,278.06ZM264.71,422a5.33,5.33,0,1,1,5.34-5.33A5.34,5.34,0,0,1,264.71,422Zm42.7-62.39,48-27.41,48,27.41v54.73l-48,27.41-48-27.41ZM408.82,533.1l-48-27.41V451l48-27.41,48,27.41v54.73ZM510.23,414.31l-48,27.41-48-27.41V359.58l48-27.41,48,27.41Z"/></g><path class="m" d="M499.56,523.24a16,16,0,1,0-16-16A16,16,0,0,0,499.56,523.24Zm0-21.32a5.33,5.33,0,1,1-5.34,5.33A5.34,5.34,0,0,1,499.56,501.92Z"/><path class="m" d="M294.08,326.74l37.36-21.32,5.29,9.26L299.38,336Z"/><path class="m" d="M480.89,454.67l37.36-21.32,5.3,9.26-37.36,21.32Z"/><path class="m" d="M328.76,459.28h10.68v48H328.76Z"/><g class="o"><path class="m" d="M347.45,543.87l5.3-9.25,37.36,21.32-5.29,9.25Z"/></g></svg>