<?xml version="1.0" encoding="UTF-8"?><svg id="Vrstva_1" xmlns="http://www.w3.org/2000/svg" xmlns:xlink="http://www.w3.org/1999/xlink" viewBox="0 0 810 810"><defs><style>.cls-1{fill:#babbbc;}.cls-2{fill:#7b7777;}.cls-3{clip-path:url(#clippath-2);}.cls-4{clip-path:url(#clippath-1);}.cls-5{clip-path:url(#clippath-4);}.cls-6{clip-path:url(#clippath);}.cls-7{fill:#7b7b7c;}.cls-8{fill:none;}.cls-9{clip-path:url(#clippath-3);}.cls-10{fill:#7e7e7e;}.cls-11{clip-path:url(#clippath-5);}</style><clipPath id="clippath"><rect class="cls-8" x="36.75" y="36.46" width="736.5" height="736.5"/></clipPath><clipPath id="clippath-1"><rect class="cls-8" x="197.85" y="193.88" width="422.25" height="422.25"/></clipPath><clipPath id="clippath-2"><rect class="cls-8" x="566.14" y="299.86" width="53.96" height="164"/></clipPath><clipPath id="clippath-3"><rect class="cls-8" x="197.85" y="350.86" width="51.29" height="160"/></clipPath><clipPath id="clippath-4"><rect class="cls-8" x="300.14" y="564.86" width="159" height="51.27"/></clipPath><clipPath id="clippath-5"><rect class="cls-8" x="354.14" y="193.88" width="164" height="52.98"/></clipPath></defs><g class="cls-6"><path class="cls-7" d="M405,772.96c-203.05,0-368.25-165.2-368.25-368.25S201.95,36.46,405,36.46s368.25,165.2,368.25,368.25-165.2,368.25-368.25,368.25Zm0-729.97C205.55,42.99,43.28,205.26,43.28,404.71s162.27,361.72,361.72,361.72,361.72-162.26,361.72-361.72S604.45,42.99,405,42.99Z"/></g><g class="cls-4"><path class="cls-1" d="M620.02,405.08c0,3.45-.09,6.9-.25,10.36-.17,3.45-.43,6.89-.76,10.33-.34,3.44-.76,6.86-1.27,10.28s-1.1,6.82-1.77,10.21c-.68,3.39-1.43,6.75-2.27,10.11s-1.76,6.68-2.76,9.98c-1,3.3-2.09,6.58-3.25,9.84-1.16,3.25-2.41,6.47-3.73,9.66-1.32,3.19-2.72,6.35-4.2,9.47-1.48,3.12-3.03,6.21-4.66,9.25-1.62,3.05-3.33,6.05-5.11,9.01-1.77,2.96-3.62,5.88-5.54,8.75-1.92,2.87-3.91,5.7-5.96,8.47-2.06,2.77-4.18,5.5-6.38,8.16-2.19,2.67-4.45,5.29-6.77,7.84-2.32,2.56-4.7,5.06-7.14,7.5-2.45,2.44-4.95,4.82-7.5,7.14-2.56,2.32-5.18,4.58-7.84,6.77-2.67,2.19-5.39,4.31-8.17,6.37-2.77,2.06-5.59,4.05-8.47,5.96-2.87,1.92-5.79,3.77-8.75,5.54-2.96,1.77-5.97,3.48-9.01,5.11-3.05,1.63-6.13,3.18-9.25,4.66-3.12,1.48-6.28,2.88-9.47,4.2-3.19,1.32-6.41,2.56-9.66,3.73-3.25,1.16-6.53,2.25-9.84,3.25-3.31,1-6.63,1.92-9.98,2.76s-6.72,1.6-10.11,2.27c-3.39,.68-6.79,1.27-10.2,1.77-3.42,.5-6.84,.93-10.28,1.27s-6.88,.59-10.33,.76c-3.45,.17-6.9,.25-10.36,.25s-6.91-.08-10.36-.25c-3.45-.17-6.89-.42-10.33-.76-3.43-.34-6.86-.76-10.28-1.27-3.42-.51-6.82-1.1-10.21-1.77-3.39-.67-6.76-1.43-10.11-2.27-3.35-.84-6.68-1.76-9.98-2.76s-6.59-2.09-9.84-3.25c-3.25-1.16-6.48-2.41-9.66-3.73-3.19-1.32-6.35-2.72-9.47-4.2-3.12-1.48-6.21-3.03-9.25-4.66-3.05-1.63-6.05-3.33-9.02-5.11-2.96-1.78-5.88-3.62-8.75-5.54s-5.7-3.91-8.47-5.96-5.5-4.18-8.17-6.37c-2.67-2.19-5.29-4.45-7.84-6.77-2.56-2.32-5.06-4.7-7.5-7.14-2.45-2.44-4.82-4.94-7.14-7.5-2.32-2.56-4.57-5.17-6.77-7.84-2.19-2.67-4.32-5.39-6.37-8.16-2.06-2.77-4.05-5.6-5.96-8.47-1.92-2.87-3.77-5.79-5.54-8.75-1.78-2.96-3.48-5.96-5.11-9.01s-3.18-6.13-4.66-9.25c-1.48-3.12-2.88-6.28-4.2-9.47s-2.57-6.41-3.73-9.66c-1.16-3.25-2.25-6.53-3.25-9.84-1-3.3-1.93-6.63-2.77-9.98-.84-3.35-1.59-6.72-2.27-10.11-.67-3.39-1.26-6.79-1.77-10.21-.51-3.42-.93-6.84-1.27-10.28-.34-3.44-.59-6.88-.76-10.33-.17-3.45-.25-6.9-.25-10.36s.09-6.91,.25-10.36c.17-3.45,.43-6.89,.76-10.33,.34-3.44,.76-6.86,1.27-10.28,.51-3.42,1.1-6.82,1.77-10.21,.68-3.39,1.43-6.75,2.27-10.11,.84-3.35,1.76-6.68,2.77-9.98,1-3.3,2.09-6.58,3.25-9.84,1.16-3.25,2.41-6.47,3.73-9.66s2.72-6.35,4.2-9.47c1.48-3.12,3.03-6.21,4.66-9.25s3.33-6.05,5.11-9.01c1.78-2.96,3.62-5.88,5.54-8.75,1.92-2.87,3.91-5.7,5.96-8.47,2.05-2.77,4.18-5.5,6.37-8.16,2.19-2.67,4.45-5.29,6.77-7.84,2.32-2.56,4.7-5.06,7.14-7.5,2.44-2.44,4.94-4.82,7.5-7.14,2.56-2.32,5.18-4.58,7.84-6.77,2.67-2.19,5.39-4.31,8.17-6.37s5.6-4.05,8.47-5.96,5.79-3.77,8.75-5.54c2.96-1.77,5.97-3.48,9.02-5.11,3.04-1.63,6.13-3.18,9.25-4.66,3.12-1.48,6.28-2.88,9.47-4.2,3.19-1.32,6.41-2.56,9.66-3.73,3.25-1.16,6.53-2.25,9.84-3.25s6.63-1.92,9.98-2.76c3.35-.84,6.72-1.6,10.11-2.27,3.39-.68,6.79-1.27,10.21-1.77,3.41-.5,6.84-.93,10.28-1.27,3.44-.34,6.88-.59,10.33-.76,3.45-.17,6.9-.25,10.36-.25s6.91,.08,10.36,.25c3.45,.17,6.89,.42,10.33,.76s6.86,.76,10.28,1.27c3.41,.51,6.82,1.1,10.2,1.77,3.39,.67,6.76,1.43,10.11,2.27s6.68,1.76,9.98,2.76c3.3,1,6.58,2.09,9.84,3.25,3.25,1.16,6.47,2.41,9.66,3.73,3.19,1.32,6.35,2.72,9.47,4.2,3.12,1.48,6.21,3.03,9.25,4.66,3.04,1.63,6.05,3.33,9.01,5.11,2.96,1.78,5.88,3.62,8.75,5.54,2.88,1.92,5.7,3.91,8.47,5.96,2.78,2.06,5.5,4.18,8.17,6.37,2.67,2.19,5.29,4.45,7.84,6.77,2.56,2.32,5.06,4.7,7.5,7.14,2.44,2.44,4.82,4.94,7.14,7.5,2.32,2.56,4.57,5.17,6.77,7.84,2.19,2.67,4.32,5.39,6.38,8.16,2.05,2.77,4.04,5.6,5.96,8.47,1.92,2.87,3.77,5.79,5.54,8.75,1.78,2.96,3.48,5.96,5.11,9.01,1.63,3.05,3.18,6.13,4.66,9.25,1.48,3.12,2.88,6.28,4.2,9.47,1.32,3.19,2.57,6.41,3.73,9.66,1.16,3.25,2.25,6.53,3.25,9.84,1,3.3,1.92,6.63,2.76,9.98s1.59,6.72,2.27,10.11c.67,3.39,1.26,6.79,1.77,10.21s.93,6.84,1.27,10.28c.34,3.44,.59,6.88,.76,10.33,.17,3.45,.25,6.9,.25,10.36Z"/></g><g class="cls-3"><path class="cls-10" d="M591.08,300.12c3.57,19.5,2.42,41.71-3.65,65.71-4.8,18.5-11.64,36.2-20.53,53.12l44.16,44.9c1.95-6.79,3.55-13.67,4.8-20.62s2.16-13.95,2.72-20.99c.56-7.05,.76-14.1,.61-21.16-.15-7.06-.65-14.1-1.51-21.12-.86-7.01-2.06-13.96-3.61-20.86s-3.45-13.69-5.68-20.39c-2.23-6.7-4.8-13.28-7.69-19.73s-6.1-12.73-9.62-18.86Z"/></g><path class="cls-10" d="M425.25,560.98l45.16,45.92c7.65-2.33,15.14-5.09,22.46-8.29,7.33-3.19,14.46-6.79,21.37-10.8,6.92-4.01,13.59-8.4,20-13.17,6.41-4.77,12.53-9.89,18.36-15.37l-52.18-53.04c-11.2,10.82-23.1,20.82-35.69,29.99-12.59,9.17-25.75,17.42-39.49,24.77Z"/><path class="cls-10" d="M408.5,412.78l-65.71,64.5,74.73,75.99c13.82-7.21,27.06-15.38,39.71-24.49,12.65-9.11,24.59-19.09,35.8-29.92l-84.54-86.09Z"/><path class="cls-10" d="M555.05,254.15c-33.59-29.81-91.11-27.79-149.67,.58l73.23,74.44,76.36-75.12,.08,.11Z"/><path class="cls-10" d="M562.3,261.51l-76.36,75.12,73.31,74.52c29.34-58.07,32.39-115.55,3.05-149.64Z"/><path class="cls-10" d="M507.79,499l52.18,53.04c5.3-5.46,10.29-11.2,14.96-17.21s9-12.25,12.99-18.74c3.99-6.48,7.61-13.16,10.87-20.04,3.26-6.88,6.13-13.91,8.62-21.11l-45.79-46.55c-14.83,25.91-32.78,49.44-53.83,70.61Z"/><path class="cls-10" d="M323.97,312.11l84.67,86.08,62.71-61.66-75.62-76.89c-26.32,14.25-50.24,31.78-71.76,52.57v-.11Z"/><path class="cls-10" d="M500.53,491.64c21.12-21.21,39-44.86,53.65-70.97l-75.57-76.78-62.71,61.67,84.64,86.08Z"/><path class="cls-10" d="M316.71,304.75c21.5-20.74,45.32-38.34,71.47-52.78l-45.79-46.53c-7.23,2.38-14.32,5.14-21.25,8.29-6.93,3.15-13.68,6.67-20.22,10.56-6.55,3.89-12.87,8.12-18.95,12.7s-11.91,9.47-17.46,14.69l52.2,53.07Z"/><path class="cls-10" d="M257.15,258.93c-5.57,5.74-10.8,11.78-15.68,18.12-4.88,6.34-9.38,12.94-13.5,19.8-4.12,6.86-7.84,13.93-11.15,21.21-3.31,7.28-6.19,14.73-8.64,22.35l45.16,45.92c7.57-13.61,16.05-26.63,25.42-39.07,9.38-12.43,19.57-24.16,30.57-35.19l-52.18-53.15Z"/><path class="cls-10" d="M316.61,319.34c-11.02,11.04-21.18,22.81-30.5,35.31-9.32,12.5-17.7,25.61-25.14,39.31l74.73,75.96,65.71-64.5-84.8-86.09Z"/><path class="cls-10" d="M254.84,549.46l73.6-72.29-72.31-73.6c-27.71,56.83-29.86,112.53-1.29,145.88Z"/><g class="cls-9"><path class="cls-10" d="M226.05,510.85c-3.57-19.48-2.42-41.69,3.66-65.71,4.43-17.11,10.64-33.55,18.64-49.31l-43.48-44.16c-1.75,6.64-3.16,13.36-4.26,20.14-1.09,6.78-1.85,13.6-2.28,20.45-.43,6.86-.52,13.72-.28,20.58,.24,6.86,.81,13.7,1.72,20.51s2.14,13.56,3.7,20.25c1.57,6.69,3.45,13.29,5.66,19.79,2.2,6.5,4.72,12.89,7.55,19.15,2.82,6.26,5.95,12.37,9.37,18.32Z"/></g><path class="cls-10" d="M407.88,558.06l-72.34-73.6-73.6,72.29c33.01,29.26,88.74,27.94,145.94,1.32Z"/><g class="cls-5"><path class="cls-10" d="M300.18,586.21c5.9,3.52,11.95,6.75,18.17,9.68,6.21,2.93,12.55,5.55,19.02,7.87,6.46,2.31,13.03,4.3,19.69,5.98,6.66,1.67,13.39,3.02,20.18,4.04s13.62,1.7,20.48,2.06c6.86,.35,13.72,.37,20.58,.06,6.86-.32,13.69-.96,20.49-1.94,6.8-.98,13.54-2.29,20.21-3.93l-43.48-44.29c-15.9,7.72-32.45,13.65-49.63,17.79-23.97,5.86-46.26,6.6-65.71,2.68Z"/></g><g class="cls-11"><path class="cls-10" d="M518.04,224.5c-19.43-4.02-41.64-3.39-65.71,2.13-18.61,4.37-36.47,10.8-53.59,19.29l-43.93-45.18c6.84-1.79,13.75-3.23,20.73-4.33s14-1.84,21.05-2.23c7.05-.39,14.11-.43,21.17-.12,7.06,.32,14.08,.98,21.08,2,6.99,1.02,13.91,2.38,20.77,4.09,6.86,1.71,13.61,3.76,20.26,6.15,6.65,2.39,13.16,5.11,19.54,8.14,6.38,3.04,12.59,6.39,18.63,10.06Z"/></g><path class="cls-2" d="M108,311.33c-2.91,.11-4.18,.82-4.97,3.02-.79,2.2,.22,4.12,1.94,5.59l29.89,27.48c2.24,1.97,5.34,1.54,6.41-1.41,.54-1.51,.26-3.09-1.03-4.25l-5.43-4.75,7.19-19.91,7.21-.19c1.62,.04,3.03-1.08,3.5-2.61,1.07-2.95-1.46-5.42-4.12-5.14l-40.6,2.18Zm5.29,6.64l20.87-.61-5.21,14.42-15.66-13.8Z"/><path class="cls-2" d="M131.96,253.69c-1.06,1.92-.48,4.33,1.44,5.39l20.18,11.18c6.2,3.43,8.59,11.01,5.41,16.76-3.36,6.07-10.96,8.04-17.21,4.57l-20.05-11.1c-1.98-1.1-4.36-.41-5.42,1.5-1.06,1.92-.38,4.3,1.61,5.39l19.73,10.93c9.9,5.48,22.52,2.29,28-7.61,5.16-9.32,1.39-22.1-8.51-27.58l-19.86-11c-1.91-1.06-4.23-.34-5.29,1.57Z"/><path class="cls-2" d="M141.21,239.74c-1.34,1.73-1.01,4.19,.73,5.52,1.27,.98,3.79,.7,5.12-1.04l6.67-8.69,28.09,21.55c1.74,1.33,4.2,1.01,5.53-.73,1.33-1.74,1.05-4.25-.68-5.59l-28.09-21.55,6.62-8.63c1.38-1.8,1.05-4.25-.34-5.32-1.68-1.29-4.14-.96-5.52,.83l-18.13,23.63Z"/><path class="cls-2" d="M193.71,180.93c-1.58,1.52-1.73,3.99-.21,5.57l11.07,11.53-16.54,15.88-11.07-11.53c-1.52-1.58-4-1.52-5.58,0-1.58,1.52-1.68,3.94-.16,5.52l27.05,28.17c1.52,1.58,4,1.63,5.57,.11,1.58-1.52,1.68-4.04,.17-5.63l-10.92-11.37,16.53-15.88,10.92,11.37c1.52,1.58,3.99,1.63,5.57,.11,1.58-1.52,1.63-4,.11-5.57l-27.05-28.17c-1.52-1.58-3.89-1.63-5.47-.11Z"/><path class="cls-2" d="M259.71,190.2c1.8-1.26,2.27-3.64,1.02-5.43-.92-1.32-3.4-1.81-5.2-.55l-17.65,12.33-7.19-10.29,13.82-9.66c1.8-1.25,2.11-3.61,.94-5.29-1.13-1.62-3.36-2.01-5.16-.76l-13.82,9.66-6.98-10,17.65-12.33c1.79-1.25,2.27-3.64,1.31-5.01-1.25-1.79-3.7-2.23-5.49-.97l-20.95,14.63c-1.86,1.3-2.23,3.7-.97,5.49l22.25,31.83c1.25,1.79,3.49,2.19,5.31,1.1l21.12-14.76Z"/><path class="cls-2" d="M279.34,127.46c-1.97,.96-2.88,3.27-1.92,5.23l12.5,25.74-36.27-16.88c-1.75-.77-3.65-.18-4.71,.99-.99,1.13-1.34,2.76-.54,4.4l16.93,34.87c.96,1.97,3.3,2.78,5.27,1.82,1.97-.96,2.84-3.33,1.89-5.3l-12.63-26,36.66,17.01c1.82,.9,3.52,.4,4.41-.77,.99-1.13,1.37-2.86,.64-4.37l-17-35c-.96-1.97-3.2-2.75-5.23-1.76Z"/><path class="cls-2" d="M296.38,120.86c-2.09,.64-3.25,2.83-2.61,4.93,.47,1.54,2.68,2.77,4.78,2.12l10.46-3.21,10.41,33.84c.64,2.09,2.83,3.25,4.93,2.61s3.32-2.86,2.68-4.95l-10.41-33.84,10.4-3.2c2.16-.66,3.32-2.86,2.81-4.53-.62-2.02-2.81-3.18-4.98-2.52l-28.46,8.75Z"/><path class="cls-2" d="M350.45,154.5c2.15-.43,3.59-2.51,3.15-4.66l-7.73-38.13c-.44-2.15-2.56-3.43-4.7-3-2.15,.44-3.53,2.43-3.09,4.58l7.73,38.13c.43,2.15,2.5,3.52,4.64,3.08Z"/><path class="cls-2" d="M384.35,150.44c6.11-.52,11.25-2.87,15.75-7.72,1.47-1.67,1.71-3.96,.33-5.52-1.38-1.57-3.98-1.2-5.62,.26-2.96,3.11-6.6,5.04-11.11,5.42-8.87,.76-16.13-6.16-16.89-15.04-.83-9.67,5.72-17.05,14.23-17.78,4.36-.38,8.3,1.05,11.75,3.68,1.85,1.09,4.49,1.08,5.57-.77,1.09-1.78,.53-4.08-1.27-5.39-5.18-3.95-10.59-5.54-17.06-4.98-13.31,1.14-22.21,13.55-21.14,25.99,1.12,13.02,12.67,22.94,25.47,21.84Z"/><path class="cls-2" d="M429.36,149.87c2.17,.29,4.21-1.21,4.49-3.39l1.11-8.39,8.83,1.16c9.62,1.27,18.32-4.95,19.57-14.43,1.26-9.55-5.39-18.31-15.09-19.58l-12.81-1.68c-2.17-.29-4.14,1.22-4.42,3.39l-5.06,38.5c-.29,2.17,1.22,4.14,3.39,4.42Zm9.12-38.56l8.97,1.18c5.64,.74,8.75,5.71,8.04,11.07s-4.96,9.14-10.6,8.4l-8.97-1.18,2.56-19.47Z"/><path class="cls-2" d="M494.09,146.25c5.26-1.16,9.64-4.55,11.45-10.95,2.51-8.85-3.02-18-12.36-20.65l-12.43-3.52c-2.11-.59-4.27,.61-4.87,2.72l-10.58,37.37c-.59,2.11,.61,4.27,2.72,4.87,2.11,.59,4.34-.59,4.94-2.7l2.79-9.83,7.45,2.11c.84,.24,1.78,.43,2.64,.6l5.4,14.96c.9,2.45,3.48,2.96,5.53,2.17,1.86-.69,2.67-2.73,1.62-5.46l-4.28-11.68Zm-11.47-27l8.71,2.47c5.41,1.53,7.93,6.57,6.55,11.41-1.37,4.85-6.11,7.38-11.52,5.84l-8.64-2.45,4.89-17.28Z"/><path class="cls-2" d="M522.45,176.18c11.87,5.64,26.5,.72,32.17-11.21,5.71-12,.32-26.52-11.54-32.16-11.93-5.68-26.39-.59-32.1,11.41-5.68,11.93-.46,26.29,11.47,31.97Zm3.23-6.79c-8.3-3.95-11.53-13.32-7.52-21.76,4.08-8.57,13.38-11.98,21.69-8.04,8.37,3.98,11.73,13.42,7.65,21.99-4.01,8.44-13.45,11.79-21.82,7.81Z"/><path class="cls-2" d="M579.8,153.65c-1.78-1.28-4.18-.94-5.46,.84l-22.69,31.61c-1.28,1.78-.88,4.22,.9,5.5l10.44,7.49c10.44,7.49,25.3,5.31,32.79-5.13s4.89-25.34-5.55-32.82l-10.44-7.49Zm-19.72,34.36l18.73-26.09,7.29,5.24c7.53,5.4,8.38,15,3.27,22.11-5.23,7.3-14.46,9.39-22,3.98l-7.29-5.23Z"/><path class="cls-2" d="M644.33,208.79c-1.54-1.55-4.02-1.67-5.57-.12l-16.38,16.24c-5.03,4.98-12.98,5.16-17.6,.49-4.88-4.93-4.64-12.77,.44-17.8l16.28-16.14c1.61-1.59,1.62-4.07,.08-5.63-1.54-1.55-4.02-1.57-5.63,.03l-16.02,15.88c-8.04,7.96-8.5,20.97-.54,29,7.5,7.57,20.82,7.52,28.86-.44l16.12-15.98c1.55-1.54,1.52-3.96-.03-5.52Z"/><path class="cls-2" d="M629.96,267.53c3.54,5,8.17,8.26,14.63,9.68,2.18,.43,4.28-.52,4.93-2.51,.65-1.98-.98-4.04-3.07-4.71-4.18-.98-7.68-3.15-10.29-6.84-5.14-7.27-2.84-17.04,4.43-22.18,7.93-5.61,17.6-3.69,22.53,3.29,2.53,3.57,3.29,7.68,2.77,11.99,0,2.15,1.34,4.42,3.48,4.42,2.09,.04,3.78-1.61,4-3.82,.79-6.46-.57-11.93-4.33-17.23-7.71-10.91-22.92-12.3-33.11-5.1-10.67,7.55-13.39,22.53-5.97,33.02Z"/><path class="cls-2" d="M684.85,265.39c-.98-1.96-3.34-2.73-5.29-1.74-1.43,.72-2.27,3.11-1.29,5.06l4.93,9.78-31.61,15.95c-1.95,.99-2.73,3.34-1.74,5.3,.98,1.95,3.37,2.79,5.33,1.81l31.61-15.95,4.9,9.71c1.02,2.02,3.37,2.8,4.94,2.01,1.89-.95,2.66-3.31,1.64-5.33l-13.42-26.59Z"/><path class="cls-2" d="M663.04,332.31c3.15,9.03,11.09,13.61,18.87,10.89,7.45-2.6,8.38-10.11,8.55-19.38,.09-3.51,.26-7.9,4.12-9.24,3.38-1.18,5.6,1.21,6.59,4.04,1.15,3.31,1.24,6.45-.22,9.12-1.1,2.39,.15,4.43,1.55,5.11,1.14,.61,3.01,.65,4.1-.66,3.36-4.11,3.71-10.18,1.84-15.56-2.62-7.51-8.89-11.97-16.61-9.28-7.58,2.64-8.52,9.7-8.76,17.44-.17,5.93-.54,9.77-3.77,10.9-4.48,1.56-7.45-.96-8.89-5.09-1.54-4.41-.9-8.11,.87-10.36,1.13-1.63,.93-2.88,.59-3.84-.96-2.76-4.48-3.31-6.41-.86-2.91,3.41-4.95,9.54-2.42,16.77Z"/><path class="cls-2" d="M177.35,614.3c8.86,9.7,24.27,10.65,34.02,1.74,9.8-8.96,10.29-24.44,1.43-34.14-8.91-9.75-24.23-10.49-34.03-1.53-9.75,8.91-10.34,24.18-1.42,33.93Zm5.55-5.07c-6.2-6.79-5.66-16.69,1.24-22.99,7-6.4,16.91-6.06,23.11,.73,6.25,6.84,5.8,16.85-1.2,23.25-6.9,6.3-16.9,5.86-23.16-.99Z"/><path class="cls-2" d="M234.14,642.28c5.31,.91,10.64-.59,14.73-5.82,5.66-7.25,3.98-17.81-3.67-23.79l-10.19-7.95c-1.73-1.34-4.19-1.04-5.54,.69l-23.88,30.63c-1.35,1.73-1.04,4.18,.68,5.53,1.73,1.35,4.25,1.09,5.59-.64l6.29-8.06,6.1,4.76c.69,.54,1.48,1.07,2.22,1.55l-.63,15.89c-.09,2.61,2.11,4.05,4.3,4.09,1.98,.07,3.5-1.52,3.56-4.45l.44-12.43Zm-.46-29.33l7.14,5.57c4.43,3.46,4.87,9.07,1.77,13.04-3.1,3.97-8.44,4.53-12.87,1.07l-7.08-5.52,11.04-14.16Z"/><path class="cls-2" d="M257.96,677.33c5.55,3.07,10.72,3.85,17.4,2.63,1.81-.25,2.79-1.13,3.54-2.46l5.3-9.58c1.03-1.85,.28-4.27-1.7-5.36l-9.32-5.16c-1.92-1.06-4.16-.47-5.19,1.38-.81,1.47-.16,3.75,1.76,4.81l6.32,3.5-3.18,5.75c-3.63,.99-7.52,.01-11.09-1.97-7.73-4.28-9.96-14.11-5.68-21.84,4.74-8.56,14.29-11.03,21.7-6.93,3.64,2.02,6.14,5.49,7.61,9.47,.87,1.9,3.06,3.36,5.02,2.53,1.9-.87,2.71-3.09,1.89-5.21-2.12-6.27-5.45-10.36-10.94-13.4-11.56-6.4-25.98-1.61-32.23,9.69-6.36,11.5-2.17,26.08,8.81,32.16Z"/><path class="cls-2" d="M319.57,656.89c-.11-2.91-.82-4.18-3.02-4.97-2.2-.79-4.12,.22-5.59,1.94l-27.48,29.89c-1.97,2.24-1.54,5.34,1.41,6.41,1.51,.54,3.09,.26,4.25-1.03l4.75-5.43,19.91,7.19,.19,7.21c-.04,1.62,1.08,3.03,2.61,3.51,2.95,1.06,5.42-1.46,5.14-4.12l-2.18-40.6Zm-6.64,5.29l.61,20.87-14.42-5.21,13.8-15.66Z"/><path class="cls-2" d="M373.88,666.08c-2.15-.4-4.25,.92-4.65,3.08l-5.19,28.14-19.21-35.09c-.96-1.66-2.84-2.3-4.38-2-1.47,.32-2.71,1.43-3.04,3.22l-7.04,38.12c-.4,2.15,1.01,4.19,3.16,4.59,2.16,.4,4.27-1,4.66-3.15l5.25-28.43,19.44,35.43c.93,1.8,2.6,2.41,4.01,2,1.47-.32,2.8-1.49,3.1-3.14l7.06-38.26c.4-2.15-.95-4.11-3.17-4.52Z"/><path class="cls-2" d="M386.09,713.59c2.19,.14,4.12-1.5,4.25-3.68l2.44-38.83c.14-2.18-1.58-3.98-3.77-4.11-2.18-.14-4.04,1.43-4.18,3.62l-2.44,38.83c-.14,2.19,1.5,4.05,3.69,4.18Z"/><path class="cls-2" d="M424.18,714.3c6.12-.32,11.35-2.49,16-7.19,1.52-1.62,1.84-3.9,.52-5.51-1.32-1.61-3.94-1.33-5.62,.07-3.06,3.01-6.77,4.81-11.29,5.04-8.89,.46-15.92-6.7-16.38-15.59-.5-9.7,6.29-16.85,14.82-17.29,4.38-.23,8.26,1.32,11.62,4.07,1.81,1.15,4.45,1.23,5.6-.58,1.15-1.74,.66-4.05-1.09-5.43-5.04-4.12-10.39-5.89-16.88-5.56-13.34,.7-22.65,12.8-22,25.27,.68,13.05,11.88,23.36,24.71,22.69Z"/><path class="cls-2" d="M449.14,682.14c2.23-.36,3.11-2.34,2.76-4.5l-1.6-10.09c-.34-2.16-1.77-3.71-4.01-3.36-2.3,.36-3.11,2.27-2.77,4.43l1.6,10.09c.34,2.16,1.71,3.79,4.02,3.43Z"/><path class="cls-2" d="M479.49,705.83c9.28-2.32,14.55-9.81,12.55-17.81-1.91-7.65-9.32-9.26-18.52-10.26-3.48-.41-7.84-.97-8.83-4.94-.87-3.47,1.71-5.47,4.62-6.2,3.4-.85,6.53-.66,9.07,1.04,2.28,1.31,4.43,.25,5.22-1.08,.71-1.08,.92-2.94-.29-4.14-3.79-3.71-9.81-4.62-15.33-3.23-7.72,1.93-12.73,7.78-10.74,15.71,1.95,7.79,8.89,9.36,16.57,10.3,5.9,.71,9.69,1.41,10.52,4.74,1.15,4.6-1.62,7.33-5.88,8.39-4.53,1.14-8.16,.16-10.23-1.8-1.52-1.28-2.78-1.19-3.77-.94-2.84,.71-3.7,4.16-1.43,6.3,3.13,3.2,9.05,5.79,16.48,3.93Z"/><path class="cls-2" d="M538.91,656.42c2.01-2.91,2.5-7.11,.89-10.46-3.12-6.52-10.75-9.26-17.27-6.13l-15.07,7.23c-1.98,.95-2.83,3.21-1.88,5.19l16.86,35.15c.95,1.98,3.25,2.73,5.23,1.79l15.47-7.42c7.11-3.41,10.21-11.62,6.84-18.66-2.05-4.28-6.61-6.87-11.05-6.68Zm-13.43-9.27c2.63-1.27,5.98-.2,7.24,2.44,1.23,2.57,.16,5.91-2.6,7.24l-11.06,5.3-4.64-9.68,11.06-5.3Zm2.29,33.14l-5.3-11.06,11.65-5.59c3.23-1.55,7.12-.5,8.64,2.66,1.45,3.03-.11,6.86-3.27,8.37l-11.71,5.62Z"/><path class="cls-2" d="M589.18,653.83c1.82-1.22,2.34-3.59,1.12-5.41-.89-1.33-3.37-1.87-5.18-.65l-17.88,12-7-10.42,14-9.4c1.82-1.22,2.18-3.57,1.04-5.27-1.1-1.64-3.32-2.07-5.14-.85l-14,9.4-6.79-10.12,17.88-12c1.82-1.22,2.34-3.59,1.4-4.98-1.22-1.82-3.65-2.3-5.47-1.08l-21.21,14.24c-1.88,1.26-2.3,3.65-1.08,5.47l21.65,32.24c1.22,1.82,3.45,2.26,5.29,1.2l21.39-14.36Z"/><path class="cls-2" d="M609.98,637.38c7.14-6.36,8.35-15.44,2.87-21.6-5.24-5.89-12.55-3.89-21.17-.52-3.28,1.25-7.4,2.77-10.12-.28-2.38-2.68-1.01-5.64,1.22-7.63,2.62-2.33,5.48-3.61,8.52-3.28,2.63,.1,4.04-1.83,4.13-3.38,.12-1.29-.55-3.03-2.17-3.54-5.08-1.54-10.83,.45-15.09,4.24-5.95,5.29-7.68,12.79-2.25,18.89,5.34,6,12.22,4.18,19.46,1.45,5.55-2.11,9.24-3.23,11.52-.67,3.15,3.55,1.95,7.25-1.32,10.16-3.49,3.11-7.16,3.93-9.91,3.14-1.94-.42-3.01,.24-3.77,.92-2.18,1.94-1.35,5.4,1.65,6.25,4.26,1.39,10.7,.93,16.43-4.16Z"/><path class="cls-2" d="M593.55,588.19c-1.43,1.66-1.25,4.13,.41,5.56,1.21,1.05,3.74,.92,5.17-.74l7.16-8.29,26.8,23.14c1.66,1.43,4.13,1.25,5.56-.41s1.3-4.18-.36-5.61l-26.8-23.14,7.11-8.23c1.48-1.71,1.3-4.18-.03-5.33-1.6-1.39-4.07-1.2-5.55,.51l-19.46,22.54Z"/><image width="1080" height="1080" transform="scale(.75)" xlink:href="../express shipping.png"/></svg>